<?xml version="1.0" encoding="utf-8"?>
<!-- Generator: Adobe Illustrator 19.0.0, SVG Export Plug-In . SVG Version: 6.00 Build 0)  -->
<svg version="1.1" xmlns="http://www.w3.org/2000/svg" xmlns:xlink="http://www.w3.org/1999/xlink" x="0px" y="0px" width="172px"
	 height="142px" viewBox="0 0 172 142" enable-background="new 0 0 172 142" xml:space="preserve">
<g id="Capa_6">
	<path fill="#0088C2" d="M81.229,75.272l1.955-9.669c0,0-2.691-0.298-2.277-4.358c0.958-0.583,4.536-2.758,4.536-2.758l4.42,2.758
		c0,0,0.691,3.344-2.104,4.47c0.3,1.222,2.341,9.557,2.341,9.557L85.81,88.645L81.229,75.272z"/>
	<path fill="#CCCCCC" d="M73.809,53.611l7.42,21.661l1.955-9.669c0,0-2.86-0.552-2.277-4.358c-1.3,0.791-2.523,1.534-2.523,1.534
		L73.809,53.611"/>
	<path fill="#CCCCCC" d="M97.077,53.515l-6.978,21.757l-2.341-9.557c0,0,2.598-1.173,2.104-4.47c0.828,0.516,2.64,1.647,2.64,1.647
		L97.077,53.515"/>
	<path fill="#D1A574" d="M85.443,58.487l9.84-8.115l-0.893-2.582c0,0-6.919,10.387-17.619,0.232
		c-0.166,0.53-0.848,2.349-0.848,2.349L85.443,58.487z"/>
	<path fill="#FFFFFF" d="M85.443,58.487l7.059,4.405l4.575-9.281c0,0-1.554-2.172-1.794-3.238
		C94.281,51.17,85.443,58.487,85.443,58.487z"/>
	<path fill="#FFFFFF" d="M85.443,58.487l-9.519-8.115c0,0-0.985,2.4-2.002,3.142c-0.112,0.096,4.463,9.264,4.463,9.264
		L85.443,58.487z"/>
	<path fill="#666666" d="M68.491,31.799c0,0-0.124-14.713,2.484-17.344c2.609-2.632,4.587-4.474,7.078-4.905
		c0.056-0.614,0.196-2.491,0.676-2.928c0.37,0.577,1.733,1.763,2.496,1.934C81.038,8.016,80.581,6.129,81.23,5
		c0.713,0.381,7.293,3.286,11.145,4.495c3.852,1.209,7.115,4.231,8.449,7.211c1.334,2.979,1.872,9.404,1.152,15.114
		c-0.499-0.026-1.698,0.268-1.802,0.646c-0.104,0.378-0.572,2.083-1.755,1.71C97.237,33.803,97,33.395,97,31.82
		c0-1.575,0-7.674,0-7.674s-0.102-5.574-10.776-5.639c-10.674-0.065-13.098,3.437-13.606,5.075
		c-0.113,1.638-0.147,8.239-0.147,8.239s0.439,2.68-0.898,2.247c-0.885-0.32-1.047-1.45-1.047-1.45S70.458,31.715,68.491,31.799z"/>
	<path fill="#E5B680" d="M72.136,40.658c0,0-4.257,0.515-5.161-6.092c-0.395-3.219,1.102-3.643,2.056-3.451
		c0.954,0.192,1.324-0.03,1.766,1.371c0.442,1.402,1.679,0.957,1.696,0.079c0.017-0.879,0.017-9.096,0.017-9.096
		s0.753-5.845,12.448-5.634c11.695,0.212,12.627,5.21,12.627,5.676s0.002,8.683,0.002,8.683s1.014,2.739,2.37,0.31
		c1.356-2.428,1.52-1.387,1.52-1.387s2.258,0.191,2.482,1.108c0.224,0.917,0.261,2.003,0,2.852
		c-0.261,0.849-1.228,5.333-4.945,5.587c-0.404,0.983-2.1,5.148-4.391,7.53c-1.245,1.495-8.51,9.602-18.065,0.274
		C74.797,47.019,72.136,40.658,72.136,40.658z"/>
	<ellipse fill="#666666" cx="79.541" cy="31.897" rx="1.864" ry="1.821"/>
	<ellipse fill="#666666" cx="91.062" cy="31.897" rx="1.864" ry="1.821"/>
	<path fill="#444444" d="M53.195,91h65.738c0,0-2.62-15.992-4.642-22.168c-1.458-4.2-4.825-6.714-7.47-8.586
		c-2.645-1.873-9.744-6.665-9.744-6.665L85.81,88.63L73.919,53.925c0,0-9.989,6.078-11.21,7.231
		c-1.221,1.154-5.385,4.959-6.574,9.158C54.946,74.513,53.195,91,53.195,91z"/>
	<path fill="#333333" d="M97.162,53.611c0,0,11.655,8.044,12.665,8.989c1.01,0.945,3.625,3.521,4.391,6.093
		c0.766,2.572,2.206,8.757,2.206,8.757l2.51,13.55h-8.132c0,0-1.44-11.995-1.736-13.138c-0.297-1.144-1.144-8.497-1.483-9.132
		c0,0-5.736-7.878-11.34-12.551C96.569,55.178,97.162,53.611,97.162,53.611z"/>
	<polygon fill="#AAAAAA" points="96.241,56.21 95.919,55.96 97.077,53.611 	"/>
	<polygon fill="#DDDDDD" points="95.919,55.96 93.716,51.653 95.283,50.372 97.077,53.611 	"/>
	<path fill="#BE905F" d="M93.716,51.653l-0.791-1.732c0,0,1.417-1.418,1.698-1.726c0.004,0.282,0.659,2.178,0.659,2.178
		L93.716,51.653z"/>
	<path fill="#D7AC76" d="M101.477,31.117c0,0,2.34,0.291,2.482,1.108c0.142,0.817,0.401,2.424-0.593,4.67
		c-0.995,2.246-2.667,3.643-4.351,3.77c-0.494,1.165-2.692,5.804-4.391,7.53c-1.698,1.726-2.842,3.74-7.967,4.692
		c3.177-1.632,9.785-7.859,10.674-13.196c0.424-0.169,2.584,0,3.473-1.652c0.89-1.652,1.968-3.854,1.493-5.676
		c0,0-0.979-1.364-2.196-0.112C100.315,31.785,100.896,31.117,101.477,31.117"/>
	<path fill="#555555" d="M102.057,31.117c0,0,0.778-8.914-0.746-13.053c-1.523-4.14-4.292-6.455-7.595-8.065
		c-1.963-0.705-3.905-1.391-4.518-1.628c0,0,4.886,1.769,7.653,5.101c2.767,3.332,3.935,15.447,3.464,18.312
		c0.367-0.417,0.8-0.643,0.884-0.667C101.284,31.092,102.057,31.117,102.057,31.117z"/>
	<path fill="#20A89A" d="M63.361,37.785"/>
</g>
<g id="Capa_7">
</g>
<g id="Capa_8">
	<g>
		<rect x="26.798" y="88.785" fill="#917250" width="118.403" height="49.514"/>
		<rect x="128.437" y="103.163" fill="#483928" width="7.335" height="22.699"/>
		<rect x="37.276" y="103.163" fill="#483928" width="7.335" height="22.699"/>
		<rect x="52.994" y="88.542" fill="#795F42" width="66.013" height="50"/>
		<rect x="59.805" y="97.037" fill="#483928" width="52.391" height="34.951"/>
		<rect x="22.607" y="83.949" fill="#483928" width="126.786" height="8.415"/>
	</g>
</g>
</svg>
