<?xml version="1.0" encoding="utf-8"?>
<!-- Generator: Adobe Illustrator 19.0.0, SVG Export Plug-In . SVG Version: 6.00 Build 0)  -->
<svg version="1.1" xmlns="http://www.w3.org/2000/svg" xmlns:xlink="http://www.w3.org/1999/xlink" x="0px" y="0px" width="142px"
	 height="142px" viewBox="0 0 142 142" style="enable-background:new 0 0 142 142;" xml:space="preserve">
<style type="text/css">
	.st0{fill:#DDDDDD;}
	.st1{fill:#BBBBBB;}
	.st2{fill:#999999;}
</style>
<g id="Capa_1">
</g>
<g id="Capa_2">
	<path id="XMLID_26_" class="st0" d="M136.8,58h-12c-1.4-6-3.9-11.7-7.2-16.9l8.4-8.3c2-2,2-5.3,0-7.3l-9.8-9.8c-2-2-5.3-2-7.4,0
		l-8.5,8.5C95.1,20.9,89,18.5,83,17.1V5.2C83,2.3,80.7,0,77.8,0H63.9C61,0,58,2.3,58,5.2v12c-6,1.4-11.7,3.9-16.8,7.2L32.9,16
		c-2-2-5.3-2-7.3,0l-9.8,9.8c-2,2-2,5.4,0,7.4c0,0,8.4,8.4,8.6,8.6l-0.4,0.4C20.8,47.3,18.5,53,17.1,59H5.2C2.3,59,0,61.3,0,64.2
		v13.9C0,81,2.3,84,5.2,84h12c1.4,6,3.8,11.7,7.2,16.9l-8.4,8.2c-2,2-2,5.3,0,7.3l9.8,9.8c2,2,5.3,2,7.4,0l8.2-8.4
		c5.2,3.2,11.6,5.6,16.6,7v11.9c0,2.9,3.3,5.2,6.2,5.2h13.9c2.9,0,5.9-2.3,5.9-5.2v-12c6-1.4,11.7-3.8,16.9-7.2l8.2,8.4
		c2,2,5.3,2,7.3,0l9.8-9.8c2-2,2-5.3,0-7.4l-8.4-8.1c3.2-5.2,5.6-11.6,7-16.6h11.9c2.9,0,5.2-3.3,5.2-6.2V63.9
		C142,61,139.7,58,136.8,58z M71,98.1C56,98.1,43.8,86,43.8,71S56,43.8,71,43.8S98.2,56,98.2,71S86,98.1,71,98.1z"/>
</g>
<g id="Capa_2_copia">
	<path id="XMLID_14_" class="st1" d="M71,142h7.1c2.9,0,5.9-2.3,5.9-5.2v-12c6-1.4,11.7-3.8,16.9-7.2l8.2,8.4c2,2,5.3,2,7.3,0
		l9.8-9.8c2-2,2-5.3,0-7.4l-8.4-8.1c3.2-5.2,5.6-11.6,7-16.6h11.9c2.9,0,5.2-3.3,5.2-6.2V63.9c0-2.9-2.3-5.9-5.2-5.9h-12
		c-1.4-6-3.9-11.7-7.2-16.9l8.4-8.3c2-2,2-5.3,0-7.3l-9.8-9.8c-2-2-5.3-2-7.4,0l-8.5,8.5C95.1,20.9,89,18.5,83,17.1V5.2
		C83,2.3,80.7,0,77.8,0H71 M71,43.8C86,43.8,98.2,56,98.2,71S86,98.1,71,98.1"/>
</g>
<g id="sombra">
	<path id="XMLID_28_" class="st2" d="M71,36.8c-18.9,0-34.3,15.3-34.3,34.3c0,18.9,15.3,34.3,34.3,34.3s34.3-15.3,34.3-34.3
		C105.3,52.1,89.9,36.8,71,36.8z M71,98.1C56,98.1,43.8,86,43.8,71S56,43.8,71,43.8S98.2,56,98.2,71S86,98.1,71,98.1z"/>
</g>
</svg>
