<?xml version="1.0" encoding="utf-8"?>
<!-- Generator: Adobe Illustrator 19.0.0, SVG Export Plug-In . SVG Version: 6.00 Build 0)  -->
<svg version="1.1" id="Capa_1" xmlns="http://www.w3.org/2000/svg" xmlns:xlink="http://www.w3.org/1999/xlink" x="0px" y="0px"
	 width="32px" height="32px" viewBox="-289 381 32 32" style="enable-background:new -289 381 32 32;" xml:space="preserve">
<style type="text/css">
	.st0{fill:#333333;stroke:#333333;stroke-miterlimit:10;}
	.st1{fill:#333333;}
</style>
<g id="Capa_1_1_">
	<path id="XMLID_18_" class="st0" d="M-267.6,385.9c-4.5-4.5-11.9-4.5-16.5,0c-4.5,4.6-4.5,11.9,0,16.5c4.5,4.5,11.9,4.5,16.5,0
		C-263.1,397.8-263.1,390.5-267.6,385.9z M-269.1,400.8c-3.7,3.7-9.7,3.7-13.4,0c-3.7-3.7-3.7-9.7,0-13.4c3.7-3.7,9.7-3.7,13.4,0
		C-265.4,391.1-265.4,397.1-269.1,400.8z"/>
	<path id="XMLID_11_" class="st0" d="M-268.4,395.6c-0.5,3.2-3.1,4.2-3.8,4.1c-0.7-0.1,1.3-1.5,1.8-4.7s-1.1-4.8-0.4-4.7
		C-270.1,390.4-267.9,392.4-268.4,395.6z"/>
</g>
<g id="Capa_2">
	<path id="XMLID_5_" class="st1" d="M-258.3,411.7L-258.3,411.7c-0.9,0.9-2.2,1.2-2.9,0.6l-4.4-4.4c-0.2-0.2-0.4-0.5-0.4-0.9v-0.1
		c0-0.6-0.4-0.9-0.9-0.9h-0.1c-0.3,0-0.6-0.1-0.9-0.3l-1.9-1.9c-0.2-0.2-0.1-0.5,0.2-0.8l2.5-2.5c0.3-0.3,0.6-0.3,0.8-0.2l1.8,1.8
		c0.2,0.2,0.3,0.6,0.3,1l0,0c0,0.6,0.3,1,0.9,1h0.1c0.4,0,0.7,0.1,0.9,0.4l4.4,4.4C-257.1,409.5-257.3,410.8-258.3,411.7z"/>
</g>
</svg>
