<?xml version="1.0" encoding="utf-8"?>
<!-- Generator: Adobe Illustrator 19.0.0, SVG Export Plug-In . SVG Version: 6.00 Build 0)  -->
<svg version="1.1" xmlns="http://www.w3.org/2000/svg" xmlns:xlink="http://www.w3.org/1999/xlink" x="0px" y="0px" width="172px"
	 height="142px" viewBox="0 0 172 142" enable-background="new 0 0 172 142" xml:space="preserve">
<g id="Capa_2">
	<path fill="#333333" d="M16.75,19.729h138.5c4.971,0,9,4.029,9,9v100.94c0,4.971-4.029,9-9,9H16.75c-4.971,0-9-4.029-9-9V28.729
		C7.75,23.758,11.779,19.729,16.75,19.729z"/>
	<path fill="#DDDDDD" d="M146.164,127.221H25.836c-2.761,0-5-2.239-5-5V63.083c0-2.761,2.239-5,5-5h120.328c2.761,0,5,2.239,5,5
		v59.138C151.164,124.982,148.926,127.221,146.164,127.221z"/>
	<g display="none">
		<path display="inline" fill="#333333" stroke="#333333" d="M83.527,105.56v5.056H55.205c-0.039-1.266,0.165-2.484,0.614-3.654
			c0.721-1.929,1.875-3.829,3.464-5.7c1.587-1.871,3.882-4.034,6.883-6.489c4.656-3.818,7.804-6.843,9.441-9.075
			c1.637-2.23,2.455-4.34,2.455-6.328c0-2.084-0.745-3.844-2.236-5.276c-1.491-1.432-3.434-2.148-5.831-2.148
			c-2.534,0-4.56,0.76-6.079,2.28c-1.52,1.52-2.29,3.624-2.309,6.313l-5.407-0.555c0.37-4.034,1.763-7.107,4.18-9.222
			c2.416-2.114,5.66-3.171,9.733-3.171c4.111,0,7.366,1.14,9.762,3.42c2.397,2.28,3.595,5.106,3.595,8.476
			c0,1.715-0.351,3.401-1.052,5.056c-0.701,1.657-1.866,3.401-3.493,5.232c-1.628,1.832-4.331,4.346-8.111,7.541
			c-3.157,2.651-5.183,4.448-6.079,5.393c-0.897,0.946-1.637,1.896-2.221,2.85H83.527z"/>
		<path display="inline" fill="#333333" stroke="#333333" d="M89.168,89.484c0-5.066,0.521-9.143,1.564-12.232
			c1.041-3.088,2.59-5.47,4.647-7.146c2.055-1.675,4.642-2.514,7.76-2.514c2.298,0,4.315,0.463,6.05,1.388
			c1.734,0.926,3.166,2.261,4.297,4.004c1.129,1.745,2.017,3.868,2.66,6.372c0.643,2.505,0.965,5.88,0.965,10.128
			c0,5.027-0.517,9.086-1.549,12.174c-1.034,3.089-2.578,5.477-4.633,7.161c-2.057,1.686-4.653,2.528-7.789,2.528
			c-4.132,0-7.376-1.48-9.733-4.443C90.58,103.338,89.168,97.533,89.168,89.484z M94.576,89.484c0,7.035,0.822,11.717,2.47,14.044
			c1.646,2.329,3.677,3.493,6.094,3.493c2.415,0,4.446-1.169,6.094-3.507c1.646-2.338,2.47-7.015,2.47-14.03
			c0-7.053-0.824-11.74-2.47-14.059c-1.648-2.318-3.697-3.478-6.153-3.478c-2.417,0-4.346,1.023-5.787,3.069
			C95.482,77.628,94.576,82.451,94.576,89.484z"/>
	</g>
	<g>
		<path fill="#333333" stroke="#333333" stroke-miterlimit="10" d="M59.691,83.54h-4.131c0.117-4.249,1.538-7.738,4.263-10.468
			c2.725-2.728,6.089-4.093,10.093-4.093c3.965,0,7.173,1.28,9.624,3.84c2.451,2.56,3.677,5.578,3.677,9.057
			c0,2.442-0.584,4.733-1.753,6.873c-1.168,2.14-3.438,5.036-6.807,8.69l-10.735,11.56h19.882v4.16H54.535L71,95.365
			c3.34-3.577,5.512-6.23,6.519-7.961c1.006-1.729,1.509-3.553,1.509-5.468c0-2.425-0.904-4.511-2.71-6.261
			c-1.807-1.749-4.019-2.624-6.636-2.624c-2.754,0-5.044,0.919-6.87,2.754C60.985,77.642,59.945,80.22,59.691,83.54z"/>
		<path fill="#333333" stroke="#333333" stroke-miterlimit="10" d="M87.904,91.626c0-5.684,0.61-10.078,1.831-13.184
			s2.944-5.459,5.171-7.061c2.227-1.601,4.717-2.402,7.471-2.402c2.793,0,5.322,0.806,7.588,2.417s4.058,4.028,5.376,7.251
			s1.978,7.549,1.978,12.979c0,5.41-0.649,9.717-1.948,12.92s-3.091,5.62-5.376,7.251s-4.824,2.446-7.617,2.446
			c-2.754,0-5.234-0.791-7.441-2.373s-3.931-3.94-5.171-7.075S87.904,97.271,87.904,91.626z M91.977,91.699
			c0,4.867,0.435,8.547,1.304,11.039s2.153,4.384,3.853,5.674s3.496,1.935,5.391,1.935c1.914,0,3.701-0.63,5.361-1.891
			s2.92-3.152,3.779-5.674c1.074-3.069,1.611-6.763,1.611-11.083c0-4.339-0.479-7.892-1.436-10.657
			c-0.957-2.767-2.28-4.789-3.97-6.069s-3.472-1.921-5.347-1.921c-1.914,0-3.711,0.641-5.391,1.921s-2.959,3.166-3.838,5.658
			S91.977,86.813,91.977,91.699z"/>
	</g>
</g>
<g id="Capa_3">
	<path fill="#DDDDDD" d="M51.525,33.374H38.13c-1.657,0-3-1.343-3-3V6.945c0-1.657,1.343-3,3-3h13.395c1.657,0,3,1.343,3,3v23.429
		C54.525,32.031,53.181,33.374,51.525,33.374z"/>
	<path fill="#DDDDDD" d="M92.697,34.444H79.303c-1.657,0-3-1.343-3-3V8.015c0-1.657,1.343-3,3-3h13.395c1.657,0,3,1.343,3,3v23.429
		C95.697,33.1,94.354,34.444,92.697,34.444z"/>
	<path fill="#DDDDDD" d="M133.505,33.374h-13.395c-1.657,0-3-1.343-3-3V6.945c0-1.657,1.343-3,3-3h13.395c1.657,0,3,1.343,3,3
		v23.429C136.505,32.031,135.162,33.374,133.505,33.374z"/>
</g>
</svg>
