<?xml version="1.0" encoding="utf-8"?>
<!-- Generator: Adobe Illustrator 19.0.0, SVG Export Plug-In . SVG Version: 6.00 Build 0)  -->
<svg version="1.1" xmlns="http://www.w3.org/2000/svg" xmlns:xlink="http://www.w3.org/1999/xlink" x="0px" y="0px" width="142px"
	 height="142px" viewBox="0 0 142 142" style="enable-background:new 0 0 142 142;" xml:space="preserve">
<style type="text/css">
	.st0{fill:#FFFFFF;stroke:#000000;stroke-width:4;stroke-miterlimit:10;}
	.st1{fill:none;stroke:#242834;stroke-width:3;stroke-linecap:round;stroke-linejoin:round;}
	.st2{fill:#242834;}
	.st3{fill:#CCCCCC;}
	.st4{display:none;fill:#CCCCCC;}
	.st5{fill:#ECCF57;}
	.st6{fill:#DE9F4C;}
</style>
<g id="Capa_3">
	<path id="XMLID_6_" class="st0" d="M71,71"/>
	<g id="XMLID_4_">
		<g id="XMLID_23_">
			<path id="XMLID_26_" class="st1" d="M6.4,67.6C8.2,33.4,36.5,6.3,71,6.3c31.7,0,58.2,22.9,63.6,53"/>
			<g id="XMLID_24_">
				<polygon id="XMLID_25_" class="st2" points="11.7,61.7 6.5,66.7 1.5,61.5 1.4,65.8 6.3,71 11.6,66.1 				"/>
			</g>
		</g>
	</g>
	<path id="XMLID_7_" class="st0" d="M71,71"/>
	<g id="XMLID_5_">
		<g id="XMLID_20_">
			<path id="XMLID_28_" class="st1" d="M134.7,74.4c-1.8,34.1-30,61.3-64.6,61.3C39.8,135.7,14.5,115,7.3,87"/>
			<g id="XMLID_21_">
				<polygon id="XMLID_27_" class="st2" points="129.4,80.3 134.6,75.3 139.6,80.5 139.7,76.2 134.7,71 129.5,75.9 				"/>
			</g>
		</g>
	</g>
</g>
<g id="Capa_2">
</g>
<g id="sombra">
</g>
<g id="Capa_4">
	<g id="XMLID_9_">
		<g id="XMLID_2_">
			<path id="XMLID_13_" class="st3" d="M97.3,51.8v18.6h-8.8V55.1c0-6-4.9-10.9-10.9-10.9H64.4c-6,0-10.9,4.9-10.9,10.9v15.3h-8.8
				V51.8c0-9.1,7.3-16.4,16.4-16.4h19.7C89.9,35.4,97.3,42.8,97.3,51.8z"/>
			<g id="XMLID_3_">
				<path id="XMLID_16_" class="st4" d="M96,56.1V70h-9.7l0-12.8c0,0,0.7-18.5-15.3-18.5C55,38.8,55,57,55,57v13h-8V55.9
					c0,0,1.6-26.4,24.9-26.4S96,56.1,96,56.1z"/>
				<path id="XMLID_1_" class="st5" d="M94.7,112.5H47.3c-2.8,0-5-2.2-5-5V70.6c0-0.6,0.4-1,1-1h55.5c0.6,0,1,0.4,1,1v36.9
					C99.7,110.3,97.5,112.5,94.7,112.5z"/>
			</g>
		</g>
		<path id="XMLID_8_" class="st6" d="M94.7,112.5H71V69.6h27.7c0.6,0,1,0.4,1,1v36.9C99.7,110.3,97.5,112.5,94.7,112.5z"/>
		<g id="XMLID_11_">
			<path id="XMLID_33_" class="st2" d="M73.8,92l1.5,10h-8.5l1.4-9.9c-2.7-1.1-4.6-3.6-4.6-6.6c0-3.8,2.8-6.8,6.5-7.2
				c0.3,0,0.5,0,0.8,0c0.3,0,0.5,0,0.8,0.1c3.7,0.4,6.5,3.3,6.5,7.1C78.2,88.5,76.4,90.9,73.8,92z"/>
		</g>
	</g>
</g>
</svg>
