<?xml version="1.0" encoding="utf-8"?>
<!-- Generator: Adobe Illustrator 19.0.0, SVG Export Plug-In . SVG Version: 6.00 Build 0)  -->
<svg version="1.1" id="Capa_2" xmlns="http://www.w3.org/2000/svg" xmlns:xlink="http://www.w3.org/1999/xlink" x="0px" y="0px"
	 width="60px" height="48px" viewBox="0 0 60 48" style="enable-background:new 0 0 60 48;" xml:space="preserve">
<style type="text/css">
	.st0{fill:#1ABC9C;stroke:#1ABC9C;stroke-miterlimit:10;}
</style>
<g id="XMLID_3_">
	<path id="XMLID_4_" class="st0" d="M21.7,41.3l20.5-30.7c0.8-1.1,0.6-2.6-0.4-3.6l0,0c-1.3-1.3-3.4-1.1-4.4,0.4L20,33.5
		c-0.8,1.1-2.4,1.3-3.4,0.3L6.9,24c-1-1-2.6-0.8-3.4,0.3l0,0c-0.6,0.9-0.5,2,0.3,2.7l14.5,14.5C19.3,42.6,20.9,42.4,21.7,41.3z"/>
</g>
<g id="XMLID_2_">
	<path id="XMLID_6_" class="st0" d="M36.5,41.1L57,10.4c0.8-1.1,0.6-2.6-0.4-3.6l0,0c-1.3-1.3-3.4-1.1-4.4,0.4L34.9,33.3
		c-0.8,1.1-2.4,1.3-3.4,0.3l-9.8-9.8c-1-1-2.6-0.8-3.4,0.3l0,0c-0.6,0.9-0.5,2,0.3,2.7l14.5,14.5C34.1,42.4,35.7,42.2,36.5,41.1z"/>
</g>
</svg>
