<?xml version="1.0" encoding="utf-8"?>
<!-- Generator: Adobe Illustrator 19.0.0, SVG Export Plug-In . SVG Version: 6.00 Build 0)  -->
<svg version="1.1" xmlns="http://www.w3.org/2000/svg" xmlns:xlink="http://www.w3.org/1999/xlink" x="0px" y="0px" width="144px"
	 height="144px" viewBox="0 0 144 144" style="enable-background:new 0 0 144 144;" xml:space="preserve">
<style type="text/css">
	.st0{fill:#187FB3;}
	.st1{fill:#CCCCCC;}
	.st2{fill:#CBA172;}
	.st3{fill:#FFFFFF;}
	.st4{fill:#666566;}
	.st5{fill:#DEB27E;}
	.st6{fill:#444444;}
	.st7{fill:#333333;}
	.st8{fill:#AAAAAA;}
	.st9{fill:#DEDDDD;}
	.st10{fill:#B88D5E;}
	.st11{fill:#D1A874;}
	.st12{fill:#555555;}
	.st13{fill:#DE9F4C;}
	.st14{fill:#E2C2A7;}
	.st15{fill:#CB6994;}
	.st16{fill:#BCD5EE;}
	.st17{fill:#9AB3C9;}
	.st18{fill:#ECCF57;}
	.st19{clip-path:url(#XMLID_19_);fill:#333333;}
</style>
<g id="usuario">
	<g id="XMLID_26_">
		<path id="XMLID_12_" class="st0" d="M49.4,114.7l3.1-15.3c0,0-4.3-0.5-3.6-6.9c1.5-0.9,7.2-4.4,7.2-4.4l7,4.4c0,0,1.1,5.3-3.3,7.1
			c0.5,1.9,3.7,15.1,3.7,15.1l-6.8,21.2L49.4,114.7z"/>
		<path id="XMLID_11_" class="st1" d="M37.6,80.4l11.8,34.3l3.1-15.3c0,0-4.5-0.9-3.6-6.9c-2.1,1.3-4,2.4-4,2.4L37.6,80.4"/>
		<path id="XMLID_10_" class="st1" d="M74.5,80.3l-11.1,34.5l-3.7-15.1c0,0,4.1-1.9,3.3-7.1c1.3,0.8,4.2,2.6,4.2,2.6L74.5,80.3"/>
		<path id="XMLID_9_" class="st2" d="M56.1,88.1l15.6-12.9l-1.4-4.1c0,0-11,16.5-27.9,0.4c-0.3,0.8-1.3,3.7-1.3,3.7L56.1,88.1z"/>
		<path id="XMLID_8_" class="st3" d="M56.1,88.1l11.2,7l7.2-14.7c0,0-2.5-3.4-2.8-5.1C70.1,76.5,56.1,88.1,56.1,88.1z"/>
		<path id="XMLID_7_" class="st3" d="M56.1,88.1L41,75.3c0,0-1.6,3.8-3.2,5c-0.2,0.2,7.1,14.7,7.1,14.7L56.1,88.1z"/>
		<path id="XMLID_6_" class="st4" d="M29.2,45.9c0,0-0.2-23.3,3.9-27.5c4.1-4.2,7.3-7.1,11.2-7.8c0.1-1,0.3-3.9,1.1-4.6
			c0.6,0.9,2.7,2.8,4,3.1c-0.3-0.9-1-3.8,0-5.6C50.5,4,61,8.6,67.1,10.5c6.1,1.9,11.3,6.7,13.4,11.4c2.1,4.7,3,14.9,1.8,23.9
			c-0.8,0-2.7,0.4-2.9,1c-0.2,0.6-0.6,3.3-2.5,2.7C75.1,49,75,48.4,75,45.9c0-2.5,0-12.2,0-12.2s-0.5-8.8-17.4-8.9
			c-16.9-0.1-20.9,5.4-21.7,8c-0.2,2.6-0.3,13-0.3,13s0.7,4.2-1.5,3.6c-1.4-0.5-1.7-2.3-1.7-2.3S32.3,45.7,29.2,45.9z"/>
		<path id="XMLID_5_" class="st5" d="M35,59.9c0,0-6.7,0.8-8.2-9.6c-0.6-5.1,1.7-5.8,3.3-5.5c1.5,0.3,2.1,0,2.8,2.2
			c0.7,2.2,2.7,1.5,2.7,0.1c0-1.4,0-14.4,0-14.4s1.2-9.3,19.7-8.9c18.5,0.3,20,8.3,20,9c0,0.7,0,13.8,0,13.8s1.6,4.3,3.8,0.5
			c2.1-3.8,2.4-2.2,2.4-2.2s3.6,0.3,3.9,1.8c0.4,1.5,0.4,3.2,0,4.5c-0.4,1.3-1.9,8.4-7.8,8.8c-0.6,1.6-3.3,8.2-7,11.9
			c-2,2.4-13.5,15.2-28.6,0.4C39.2,70,35,59.9,35,59.9z"/>
		<ellipse id="XMLID_4_" class="st4" cx="46.7" cy="46" rx="3" ry="2.9"/>
		<ellipse id="XMLID_3_" class="st4" cx="65" cy="46" rx="3" ry="2.9"/>
		<path id="XMLID_2_" class="st6" d="M5,140h104.1c0,0-4.1-25.5-7.4-35.3C99.5,98,94.1,94,89.9,91c-4.2-3-15.4-10.6-15.4-10.6
			l-17.8,55.5l-18.8-55c0,0-15.8,9.6-17.8,11.4c-1.9,1.8-8.5,8-10.4,14.7C7.8,113.7,5,140,5,140z"/>
		<path id="XMLID_18_" class="st7" d="M74.6,80.4c0,0,18.5,12.7,20.1,14.2c1.6,1.5,5.7,5.6,7,9.6c1.2,4.1,3.5,14.1,3.5,14.1l4,21.7
			H96.2c0,0-2.3-19.2-2.8-21c-0.5-1.8-1.8-13.6-2.3-14.6c0,0-9.1-12.5-18-19.9C73.7,82.9,74.6,80.4,74.6,80.4z"/>
		<polygon id="XMLID_17_" class="st8" points="73.2,84.5 72.7,84.1 74.5,80.4 		"/>
		<polygon id="XMLID_16_" class="st9" points="72.7,84.1 69.2,77.3 71.7,75.3 74.5,80.4 		"/>
		<path id="XMLID_15_" class="st10" d="M69.2,77.3l-1.3-2.7c0,0,2.2-2.2,2.7-2.7c0,0.4,1,3.4,1,3.4L69.2,77.3z"/>
		<path id="XMLID_14_" class="st11" d="M81.5,44.8c0,0,3.7,0.5,3.9,1.8c0.2,1.3,0.6,3.8-0.9,7.4c-1.6,3.6-4.2,5.8-6.9,6
			c-0.8,1.8-4.3,9.2-7,11.9c-2.7,2.7-4.5,5.9-12.6,7.4c5-2.6,15.5-12.4,16.9-20.9c0.7-0.3,4.1,0,5.5-2.6c1.4-2.6,3.1-6.1,2.4-9
			c0,0-1.6-2.2-3.5-0.2C79.6,45.8,80.5,44.8,81.5,44.8"/>
		<path id="XMLID_13_" class="st12" d="M82.4,44.8c0,0,1.2-14.1-1.2-20.7c-2.4-6.6-6.8-10.2-12-12.8C66.1,10.2,63,9.1,62,8.8
			c0,0,7.7,2.8,12.1,8.1c4.4,5.3,6.2,24.5,5.5,29c0.6-0.7,1.3-1,1.4-1.1C81.2,44.7,82.4,44.8,82.4,44.8z"/>
	</g>
</g>
<g id="Capa_3">
	<g id="XMLID_28_">
		<g id="XMLID_29_">
			<path id="XMLID_38_" class="st13" d="M81,135.2l46.9-46.9l-22.6-22.6l-46.9,46.9c0,8.8,0,13.8,0,22.6l0,0
				C67.2,135.2,72.2,135.2,81,135.2z"/>
			<rect id="XMLID_37_" x="58.4" y="112.6" class="st14" width="22.6" height="22.6"/>
			<path id="XMLID_36_" class="st15" d="M138.3,77.9l-5.2,5.2l-22.6-22.6l5.2-5.2c2-2,5.1-2,7.1,0l15.5,15.5
				C140.3,72.8,140.3,75.9,138.3,77.9z"/>
			
				<rect id="XMLID_35_" x="115.6" y="58.4" transform="matrix(-0.7071 0.7071 -0.7071 -0.7071 256.1475 42.6816)" class="st16" width="7.3" height="31.9"/>
			
				<rect id="XMLID_34_" x="115.6" y="66.3" transform="matrix(-0.7071 0.7071 -0.7071 -0.7071 256.1545 42.6646)" class="st17" width="7.3" height="16.1"/>
			<path id="XMLID_33_" class="st18" d="M81.1,123.9l41.2-41.2L111,71.3l-41.2,41.2c0,4.4,0,6.9,0,11.4l0,0
				C74.2,123.9,76.7,123.9,81.1,123.9z"/>
			<g id="XMLID_30_">
				<defs>
					<rect id="XMLID_31_" x="58.4" y="112.6" width="22.6" height="22.6"/>
				</defs>
				<clipPath id="XMLID_19_">
					<use xlink:href="#XMLID_31_"  style="overflow:visible;"/>
				</clipPath>
				<polygon id="XMLID_32_" class="st19" points="58.4,135.2 58.4,126.3 67.4,135.2 				"/>
			</g>
		</g>
	</g>
</g>
</svg>
