<?xml version="1.0" encoding="utf-8"?>
<!-- Generator: Adobe Illustrator 19.0.0, SVG Export Plug-In . SVG Version: 6.00 Build 0)  -->
<svg version="1.1" id="Capa_1" xmlns="http://www.w3.org/2000/svg" xmlns:xlink="http://www.w3.org/1999/xlink" x="0px" y="0px"
	 width="48px" height="48px" viewBox="0 0 48 48" style="enable-background:new 0 0 48 48;" xml:space="preserve">
<style type="text/css">
	.st0{fill:#E74C3C;}
</style>
<g id="XMLID_9_">
	<path id="XMLID_15_" class="st0" d="M37.3,4.8l6.2,6.2c0.4,0.4,0.4,1,0,1.4L31.8,24l11.6,11.6c0.4,0.4,0.4,1,0,1.4l-6.2,6.2
		c-0.4,0.4-1,0.4-1.4,0L24.3,31.5L12.6,43.2c-0.4,0.4-1,0.4-1.4,0L5.1,37c-0.4-0.4-0.4-1,0-1.4L16.8,24L5.1,12.4
		c-0.4-0.4-0.4-1,0-1.4l6.2-6.2c0.4-0.4,1-0.4,1.4,0l11.6,11.6L35.9,4.8C36.3,4.4,36.9,4.4,37.3,4.8z"/>
</g>
</svg>
