<?xml version="1.0" encoding="utf-8"?>
<!-- Generator: Adobe Illustrator 16.0.0, SVG Export Plug-In . SVG Version: 6.00 Build 0)  -->
<!DOCTYPE svg PUBLIC "-//W3C//DTD SVG 1.1//EN" "http://www.w3.org/Graphics/SVG/1.1/DTD/svg11.dtd">
<svg version="1.1" xmlns="http://www.w3.org/2000/svg" xmlns:xlink="http://www.w3.org/1999/xlink" x="0px" y="0px" width="172px"
	 height="142px" viewBox="0 0 172 142" enable-background="new 0 0 172 142" xml:space="preserve">
<g id="Capa_8" display="none">
	<polygon id="XMLID_1_" display="inline" fill="#DDDDDD" points="122.654,32.781 122.653,139 21.654,139 21.654,3 92.832,3 	"/>
	
		<line id="XMLID_19_" display="inline" fill="none" stroke="#666666" stroke-width="4" stroke-miterlimit="10" x1="29" y1="120" x2="115" y2="120"/>
	
		<line id="XMLID_16_" display="inline" fill="none" stroke="#666666" stroke-width="4" stroke-miterlimit="10" x1="29" y1="109" x2="109" y2="109"/>
	
		<line id="XMLID_15_" display="inline" fill="none" stroke="#666666" stroke-width="4" stroke-miterlimit="10" x1="29" y1="99" x2="110" y2="99"/>
	
		<line id="XMLID_13_" display="inline" fill="none" stroke="#666666" stroke-width="4" stroke-miterlimit="10" x1="29" y1="89" x2="115" y2="89"/>
	
		<line id="XMLID_12_" display="inline" fill="none" stroke="#666666" stroke-width="4" stroke-miterlimit="10" x1="29" y1="68" x2="115" y2="68"/>
	
		<line id="XMLID_10_" display="inline" fill="none" stroke="#666666" stroke-width="4" stroke-miterlimit="10" x1="29" y1="37" x2="75" y2="37"/>
	
		<line id="XMLID_8_" display="inline" fill="none" stroke="#666666" stroke-width="4" stroke-miterlimit="10" x1="29" y1="27" x2="75" y2="27"/>
	
		<line id="XMLID_3_" display="inline" fill="none" stroke="#666666" stroke-width="4" stroke-miterlimit="10" x1="29" y1="59" x2="115" y2="59"/>
	
		<line id="XMLID_14_" display="inline" fill="none" stroke="#666666" stroke-width="4" stroke-miterlimit="10" x1="29" y1="77" x2="115" y2="77"/>
	
		<line id="XMLID_27_" display="inline" fill="none" stroke="#666666" stroke-width="4" stroke-miterlimit="10" x1="29" y1="46" x2="75" y2="46"/>
	<g id="XMLID_6_" display="inline">
		<defs>
			<polygon id="XMLID_23_" points="122.654,32.781 122.653,139 21.654,139 21.654,3 92.832,3 			"/>
		</defs>
		<clipPath id="XMLID_9_">
			<use xlink:href="#XMLID_23_"  overflow="visible"/>
		</clipPath>
		<linearGradient id="XMLID_11_" gradientUnits="userSpaceOnUse" x1="126.2422" y1="84.6611" x2="126.2422" y2="3.0005">
			<stop  offset="0.4" style="stop-color:#DDDDDD;stop-opacity:0.5"/>
			<stop  offset="1" style="stop-color:#333333;stop-opacity:0.5"/>
		</linearGradient>
		<polygon id="XMLID_4_" clip-path="url(#XMLID_9_)" fill="url(#XMLID_11_)" points="144.814,84.661 92.832,32.781 92.832,3 
			159.653,69.822 		"/>
	</g>
	<polygon id="XMLID_5_" display="inline" fill="#EEEEEE" points="122.654,32.781 92.832,32.781 92.827,3 	"/>
</g>
<g id="Capa_2">
	<polyline fill="#F9F9F9" points="21.771,139 21.771,3 92.949,3 122.771,32.781 122.771,139 	"/>
	<line fill="none" stroke="#666666" stroke-width="4" stroke-miterlimit="10" x1="29.771" y1="120" x2="115.771" y2="120"/>
	<line fill="none" stroke="#666666" stroke-width="4" stroke-miterlimit="10" x1="29.771" y1="109" x2="115.771" y2="109"/>
	<line fill="none" stroke="#666666" stroke-width="4" stroke-miterlimit="10" x1="29.771" y1="99" x2="115.771" y2="99"/>
	<line fill="none" stroke="#666666" stroke-width="4" stroke-miterlimit="10" x1="29.771" y1="89" x2="115.771" y2="89"/>
	<line fill="none" stroke="#666666" stroke-width="4" stroke-miterlimit="10" x1="29.771" y1="68" x2="115.771" y2="68"/>
	<line fill="none" stroke="#666666" stroke-width="4" stroke-miterlimit="10" x1="29.771" y1="37" x2="75.771" y2="37"/>
	<line fill="none" stroke="#666666" stroke-width="4" stroke-miterlimit="10" x1="29.771" y1="27" x2="75.771" y2="27"/>
	<line fill="none" stroke="#666666" stroke-width="4" stroke-miterlimit="10" x1="29.771" y1="59" x2="115.771" y2="59"/>
	<line fill="none" stroke="#666666" stroke-width="4" stroke-miterlimit="10" x1="29.771" y1="77" x2="115.771" y2="77"/>
	<line fill="none" stroke="#666666" stroke-width="4" stroke-miterlimit="10" x1="29.771" y1="46" x2="75.771" y2="46"/>
	<g>
		<defs>
			<polygon id="SVGID_1_" points="92.949,32.781 122.771,62.544 122.771,32.822 92.949,3 			"/>
		</defs>
		<clipPath id="SVGID_2_">
			<use xlink:href="#SVGID_1_"  overflow="visible"/>
		</clipPath>
		<defs>
			<filter id="Adobe_OpacityMaskFilter" filterUnits="userSpaceOnUse" x="92.949" y="3" width="29.822" height="59.544">
				<feColorMatrix  type="matrix" values="1 0 0 0 0  0 1 0 0 0  0 0 1 0 0  0 0 0 1 0"/>
			</filter>
		</defs>
		<mask maskUnits="userSpaceOnUse" x="92.949" y="3" width="29.822" height="59.544" id="SVGID_3_">
			<g filter="url(#Adobe_OpacityMaskFilter)">
				
					<linearGradient id="SVGID_4_" gradientUnits="userSpaceOnUse" x1="16.0122" y1="143.3027" x2="17.0122" y2="143.3027" gradientTransform="matrix(0 -81.6608 -81.6608 0 11810.0771 1392.2386)">
					<stop  offset="0" style="stop-color:#808080"/>
					<stop  offset="0.4" style="stop-color:#808080"/>
					<stop  offset="1" style="stop-color:#808080"/>
				</linearGradient>
				<rect x="92.949" y="2.999" clip-path="url(#SVGID_2_)" fill="url(#SVGID_4_)" width="29.822" height="59.544"/>
			</g>
		</mask>
		
			<linearGradient id="SVGID_5_" gradientUnits="userSpaceOnUse" x1="16.0122" y1="143.3027" x2="17.0122" y2="143.3027" gradientTransform="matrix(0 -81.6608 -81.6608 0 11810.0771 1392.2394)">
			<stop  offset="0.2512" style="stop-color:#DDDDDD;stop-opacity:0.1"/>
			<stop  offset="0.4286" style="stop-color:#DDDDDD;stop-opacity:0.3"/>
			<stop  offset="1" style="stop-color:#333333;stop-opacity:0.8"/>
		</linearGradient>
		<rect x="92.949" y="3" clip-path="url(#SVGID_2_)" mask="url(#SVGID_3_)" fill="url(#SVGID_5_)" width="29.822" height="59.544"/>
	</g>
	<polygon fill="#FFFFFF" points="122.771,32.781 92.949,32.781 92.945,3 	"/>
	<polyline fill="none" points="151.771,0 9.771,0 9.771,142 	"/>
</g>
<g id="Capa_4">
	<g>
		<defs>
			<polygon id="XMLID_7_" points="122.654,32.781 122.653,139 21.654,139 21.654,3 92.832,3 			"/>
		</defs>
		<clipPath id="XMLID_17_">
			<use xlink:href="#XMLID_7_"  overflow="visible"/>
		</clipPath>
		<g clip-path="url(#XMLID_17_)">
			<path fill="#F9F9F9" d="M100.82,138.68c-0.64,0-1.278-0.244-1.767-0.731l-10.48-10.47c-0.47-0.469-0.733-1.104-0.733-1.768
				c0-0.664,0.264-1.3,0.732-1.769l19.182-19.183L88.572,85.589c-0.469-0.469-0.732-1.105-0.732-1.769s0.264-1.299,0.732-1.768
				l10.48-10.48c0.469-0.469,1.104-0.732,1.768-0.732l0,0c0.663,0,1.3,0.264,1.769,0.733l19.171,19.181l19.183-19.182
				c0.469-0.469,1.104-0.732,1.768-0.732c0,0,0,0,0.001,0c0.663,0,1.299,0.264,1.768,0.733l10.47,10.481
				c0.976,0.977,0.976,2.559-0.001,3.534l-19.172,19.172l19.173,19.183c0.976,0.977,0.976,2.56-0.001,3.535l-10.47,10.47
				c-0.488,0.488-1.128,0.732-1.768,0.732s-1.279-0.244-1.768-0.731l-19.183-19.173l-19.172,19.172
				C102.1,138.436,101.46,138.68,100.82,138.68z"/>
			<path fill="#F9F9F9" d="M142.71,73.34l10.47,10.48L132.24,104.76l20.939,20.95l-10.47,10.47l-20.95-20.939L100.82,136.18
				l-10.48-10.47l20.95-20.95L90.34,83.82l10.48-10.48l20.939,20.95L142.71,73.34 M142.71,68.34c-1.326,0-2.598,0.527-3.535,1.464
				l-17.414,17.414l-17.404-17.413c-0.938-0.938-2.209-1.465-3.535-1.465s-2.599,0.527-3.536,1.464L86.804,80.285
				c-0.938,0.938-1.464,2.21-1.464,3.536s0.527,2.598,1.465,3.535l17.413,17.404l-17.414,17.414
				c-0.938,0.938-1.465,2.21-1.464,3.536c0,1.327,0.528,2.599,1.466,3.536l10.48,10.47c0.977,0.976,2.256,1.463,3.534,1.463
				c1.279,0,2.56-0.488,3.535-1.465l17.405-17.404l17.415,17.405c0.976,0.976,2.255,1.464,3.534,1.464s2.56-0.488,3.535-1.465
				l10.47-10.47c1.953-1.952,1.953-5.117,0.001-7.069l-17.405-17.415l17.404-17.405c1.952-1.951,1.953-5.116,0.002-7.069
				l-10.47-10.48C145.31,68.868,144.038,68.34,142.71,68.34L142.71,68.34L142.71,68.34z"/>
		</g>
	</g>
</g>
<g id="Capa_3">
	<g>
		<path fill="#F05246" d="M142.71,136.68c-0.128,0-0.256-0.049-0.354-0.146l-20.597-20.586l-20.586,20.586
			c-0.098,0.098-0.226,0.146-0.354,0.146s-0.256-0.049-0.354-0.146l-10.48-10.47c-0.094-0.094-0.146-0.221-0.146-0.354
			s0.053-0.26,0.146-0.354l20.597-20.597L89.986,84.174c-0.094-0.094-0.146-0.221-0.146-0.354s0.053-0.26,0.146-0.354l10.48-10.48
			c0.094-0.094,0.221-0.146,0.354-0.146l0,0c0.133,0,0.26,0.053,0.354,0.146l20.586,20.597l20.597-20.597
			c0.094-0.094,0.221-0.146,0.354-0.146l0,0c0.133,0,0.26,0.053,0.354,0.146l10.47,10.48c0.195,0.195,0.195,0.512,0,0.707
			l-20.586,20.586l20.586,20.597c0.195,0.195,0.195,0.512,0,0.707l-10.47,10.47C142.966,136.631,142.838,136.68,142.71,136.68z"/>
		<path fill="#F05246" d="M142.71,73.34l10.47,10.48L132.24,104.76l20.939,20.95l-10.47,10.47l-20.95-20.939L100.82,136.18
			l-10.48-10.47l20.95-20.95L90.34,83.82l10.48-10.48l20.939,20.95L142.71,73.34 M142.71,72.34c-0.265,0-0.52,0.105-0.707,0.293
			L121.76,92.876l-20.232-20.243c-0.188-0.188-0.442-0.293-0.707-0.293c-0.266,0-0.52,0.105-0.707,0.293l-10.48,10.48
			c-0.188,0.188-0.293,0.441-0.293,0.707c0,0.265,0.105,0.52,0.293,0.707l20.243,20.232l-20.243,20.243
			c-0.188,0.188-0.293,0.442-0.293,0.707c0,0.266,0.105,0.52,0.293,0.707l10.48,10.471c0.195,0.194,0.451,0.292,0.707,0.292
			s0.512-0.098,0.707-0.293l20.232-20.232l20.243,20.233c0.195,0.194,0.451,0.292,0.707,0.292s0.512-0.098,0.707-0.293l10.47-10.47
			c0.391-0.391,0.391-1.023,0.001-1.414l-20.233-20.243l20.232-20.232c0.391-0.391,0.391-1.023,0.001-1.414l-10.47-10.48
			C143.23,72.445,142.976,72.34,142.71,72.34L142.71,72.34z"/>
	</g>
</g>
</svg>
