<?xml version="1.0" encoding="utf-8"?>
<!-- Generator: Adobe Illustrator 19.0.0, SVG Export Plug-In . SVG Version: 6.00 Build 0)  -->
<svg version="1.1" id="Capa_1" xmlns="http://www.w3.org/2000/svg" xmlns:xlink="http://www.w3.org/1999/xlink" x="0px" y="0px"
	 width="48px" height="48px" viewBox="0 0 48 48" style="enable-background:new 0 0 48 48;" xml:space="preserve">
<style type="text/css">
	.st0{fill:#E74C3C;}
</style>
<g id="XMLID_9_">
	<path id="XMLID_15_" class="st0" d="M40,0.5L47.5,8c0.5,0.5,0.5,1.2,0,1.7L33.2,24l14.3,14.3c0.5,0.5,0.5,1.2,0,1.7L40,47.5
		c-0.5,0.5-1.2,0.5-1.7,0L24,33.2L9.7,47.5C9.3,48,8.5,48,8,47.5L0.5,40c-0.5-0.5-0.5-1.2,0-1.7L14.8,24L0.5,9.7C0,9.3,0,8.5,0.5,8
		L8,0.5C8.5,0,9.3,0,9.7,0.5L24,14.8L38.3,0.5C38.7,0,39.5,0,40,0.5z"/>
</g>
</svg>
