<?xml version="1.0" encoding="utf-8"?>
<!-- Generator: Adobe Illustrator 19.0.0, SVG Export Plug-In . SVG Version: 6.00 Build 0)  -->
<svg version="1.1" id="Capa_3" xmlns="http://www.w3.org/2000/svg" xmlns:xlink="http://www.w3.org/1999/xlink" x="0px" y="0px"
	 width="48px" height="48px" viewBox="0 0 48 48" style="enable-background:new 0 0 48 48;" xml:space="preserve">
<style type="text/css">
	.st0{fill:#F4A460;}
	.st1{fill:#AAAAAA;}
</style>
<g id="XMLID_3_">
	<path id="XMLID_1_" class="st0" d="M22.9,46h-7.6c-6.6,0-12-5.4-12-12V20h31.7v14C34.9,40.6,29.6,46,22.9,46z"/>
	<path id="XMLID_22_" class="st0" d="M45,24.8v8c0,1.7-0.5,4.2-2.6,4.2H33v-3h7.9c1.3,0,1.1-1.4,1.1-2.6v-4.9c0-1.1,0.2-1.6-1.1-1.6
		H33v-3h9.4C44.5,22,45,23.1,45,24.8z"/>
</g>
<g id="XMLID_4_">
	<g id="XMLID_6_">
		<path id="XMLID_15_" class="st1" d="M18.6,2.4c0.3,0.6,0.4,1.2,0.6,1.8l0.2,0.9l0.1,0.5l0,0.1l0,0c0,0,0,0,0,0l0,0.1
			c0,0.1,0,0.2,0,0.2c0.1,0.2,0.2,0.5,0.3,0.7c0.1,0.2,0.2,0.4,0.4,0.6c0.3,0.4,0.6,0.8,1,1L20.1,10l1.2-1.6c1.1,0.8,1.9,2.2,2,3.5
			c0,0.3,0,0.7,0,1c-0.1,0.3-0.1,0.6-0.2,0.9c-0.1,0.6-0.3,1.1-0.5,1.7c-0.2-0.6-0.3-1.2-0.5-1.7c-0.1-0.3-0.1-0.6-0.2-0.9
			c-0.1-0.2-0.1-0.5-0.2-0.7c-0.3-0.9-0.9-1.7-1.6-2.2l1.2-1.6L20.1,10c-0.6-0.4-1.1-1-1.5-1.7c-0.2-0.3-0.3-0.7-0.4-1
			c-0.1-0.4-0.1-0.7-0.2-1.1c0-0.1,0-0.2,0-0.3l0-0.1l0-0.1l0-0.5l0.1-0.9C18.3,3.6,18.4,3,18.6,2.4z"/>
	</g>
	<g id="XMLID_2_">
		<path id="XMLID_13_" class="st1" d="M20.4,19.7c-0.3-0.7-0.4-1.4-0.6-2.1l-0.2-1L19.5,16l0-0.1l0-0.1c0-0.1,0-0.2-0.1-0.2
			c-0.1-0.3-0.2-0.6-0.3-0.8c-0.1-0.3-0.3-0.5-0.4-0.8c-0.3-0.5-0.7-0.9-1.2-1.2l1.2-1.6l-1.2,1.6c-1.3-0.9-2.1-2.4-2.2-3.9
			c0-0.4,0-0.7,0-1.1c0.1-0.3,0.1-0.6,0.2-1c0.1-0.6,0.3-1.3,0.5-1.9c0.2,0.7,0.3,1.3,0.4,2c0.1,0.3,0.1,0.7,0.1,1
			c0.1,0.3,0.1,0.6,0.2,0.8c0.2,0.5,0.4,1,0.7,1.4c0.3,0.4,0.7,0.8,1.1,1.1l-1.2,1.6l1.2-1.6c0.7,0.5,1.2,1.1,1.6,1.9
			c0.2,0.4,0.3,0.8,0.4,1.2c0.1,0.4,0.2,0.8,0.2,1.2c0,0.1,0,0.2,0,0.3l0,0.3l0,0.5l-0.1,1.1C20.7,18.3,20.6,19,20.4,19.7z"/>
	</g>
</g>
</svg>
