<?xml version="1.0" encoding="utf-8"?>
<!-- Generator: Adobe Illustrator 19.0.0, SVG Export Plug-In . SVG Version: 6.00 Build 0)  -->
<svg version="1.1" id="Capa_2" xmlns="http://www.w3.org/2000/svg" xmlns:xlink="http://www.w3.org/1999/xlink" x="0px" y="0px"
	 width="48px" height="48px" viewBox="0 0 48 48" style="enable-background:new 0 0 48 48;" xml:space="preserve">
<style type="text/css">
	.st0{fill:#888888;}
	.st1{fill:#555555;}
	.st2{fill:#DDDDDD;}
	.st3{fill:#FFFFFF;}
	.st4{fill:#D37211;}
</style>
<g id="XMLID_17_">
	<path id="XMLID_18_" class="st0" d="M43,0.5H3c-1.1,0-2,0.9-2,2v43c0,1.1,0.9,2,2,2H45c1.1,0,2-0.9,2-2v-41
		C45.5,2.9,44.6,2.1,43,0.5z"/>
	<path id="XMLID_19_" class="st1" d="M41.2,46.3h-35c-0.6,0-1-0.4-1-1V20.6c0-0.6,0.4-1,1-1h35c0.6,0,1,0.4,1,1v24.7
		C42.2,45.9,41.8,46.3,41.2,46.3z"/>
	<path id="XMLID_22_" class="st1" d="M6.5,16.5h30.3c0.9,0,1.6-0.7,1.6-1.6V0.5H4.9v14.4C4.9,15.7,5.6,16.5,6.5,16.5z"/>
	<path id="XMLID_23_" class="st2" d="M35.6,16.5H13.2c-0.6,0-1-0.4-1-1v-15h24.4v15C36.6,16,36.1,16.5,35.6,16.5z"/>
	<path id="XMLID_24_" class="st3" d="M7.8,21h32c0.6,0,1,0.4,1,1v21.9c0,0.6-0.4,1-1,1h-32c-0.6,0-1-0.4-1-1V22
		C6.8,21.5,7.2,21,7.8,21z"/>
	<path id="XMLID_25_" class="st4" d="M7.8,21h32c0.6,0,1,0.4,1,1v4.3h-34V22C6.8,21.5,7.2,21,7.8,21z"/>
	<path id="XMLID_26_" class="st1" d="M32.2,15.5H27c-0.3,0-0.5-0.2-0.5-0.5V3.3c0-0.3,0.2-0.5,0.5-0.5h5.2c0.3,0,0.5,0.2,0.5,0.5V15
		C32.7,15.2,32.5,15.5,32.2,15.5z"/>
	<path id="XMLID_27_" class="st1" d="M43.1,44.7h2.4c0.2,0,0.3-0.1,0.3-0.3v-1.9c0-0.2-0.1-0.3-0.3-0.3h-2.4c-0.2,0-0.3,0.1-0.3,0.3
		v1.9C42.8,44.6,43,44.7,43.1,44.7z"/>
	<path id="XMLID_28_" class="st1" d="M1.8,44.7h2.4c0.2,0,0.3-0.1,0.3-0.3v-1.9c0-0.2-0.1-0.3-0.3-0.3H1.8c-0.2,0-0.3,0.1-0.3,0.3
		v1.9C1.5,44.6,1.7,44.7,1.8,44.7z"/>
</g>
</svg>
