<?xml version="1.0" encoding="utf-8"?>
<!-- Generator: Adobe Illustrator 19.0.0, SVG Export Plug-In . SVG Version: 6.00 Build 0)  -->
<svg version="1.1" id="Capa_1" xmlns="http://www.w3.org/2000/svg" xmlns:xlink="http://www.w3.org/1999/xlink" x="0px" y="0px"
	 width="48px" height="48px" viewBox="0 0 48 48" style="enable-background:new 0 0 48 48;" xml:space="preserve">
<style type="text/css">
	.st0{fill:#DDDDDD;}
	.st1{clip-path:url(#XMLID_2_);fill:url(#XMLID_7_);}
	.st2{fill:#FFFFFF;stroke:#000000;stroke-miterlimit:10;}
	.st3{fill:none;stroke:#E74C3C;stroke-miterlimit:10;}
</style>
<g id="XMLID_13_">
	<g id="XMLID_14_">
		<polygon id="XMLID_3_" class="st0" points="38.7,12.9 38.7,43.8 9.3,43.8 9.3,4.3 30,4.3 		"/>
		<g id="XMLID_6_">
			<defs>
				<polygon id="XMLID_23_" points="38.7,12.9 38.7,43.8 9.3,43.8 9.3,4.3 30,4.3 				"/>
			</defs>
			<use xlink:href="#XMLID_23_"  style="overflow:visible;fill:#CCCCCC;"/>
			<clipPath id="XMLID_2_">
				<use xlink:href="#XMLID_23_"  style="overflow:visible;"/>
			</clipPath>
			<linearGradient id="XMLID_7_" gradientUnits="userSpaceOnUse" x1="39.7096" y1="27.9677" x2="39.7096" y2="4.25">
				<stop  offset="0.4" style="stop-color:#DDDDDD;stop-opacity:0.5"/>
				<stop  offset="1" style="stop-color:#333333;stop-opacity:0.5"/>
			</linearGradient>
			<polygon id="XMLID_5_" class="st1" points="45.1,28 30,12.9 30,4.3 49.4,23.7 			"/>
		</g>
		<polygon id="XMLID_4_" class="st0" points="38.7,12.9 30,12.9 30,4.3 		"/>
	</g>
</g>
<g id="Capa_6_1_">
	<path id="XMLID_12_" class="st2" d="M12.8,35.8"/>
	<path id="XMLID_11_" class="st3" d="M33.4,25.6c-0.8,0.1-9.9,0.9-18.5,6.7c-0.4,0.3-2.9,2.8-2.1,3.7c0.8,1,2.2,0.3,3.5-1.3
		c0.1-0.1,6.5-15.5,5.8-19.5c-0.8-4.3-2.4-3.7-2.6-3.7c-0.8,0.1-2.5,1.4-1.5,5.2C19.4,22.4,27.4,28,30.1,29c2.4,0.9,4.4-0.3,4.4-0.3
		C36.4,27.4,34.8,25.7,33.4,25.6z"/>
</g>
</svg>
