<?xml version="1.0" encoding="utf-8"?>
<!-- Generator: Adobe Illustrator 19.0.0, SVG Export Plug-In . SVG Version: 6.00 Build 0)  -->
<svg version="1.1" id="Capa_1" xmlns="http://www.w3.org/2000/svg" xmlns:xlink="http://www.w3.org/1999/xlink" x="0px" y="0px"
	 width="48px" height="48px" viewBox="0 0 48 48" style="enable-background:new 0 0 48 48;" xml:space="preserve">
<style type="text/css">
	.st0{fill:#1ABC9C;}
	.st1{fill:none;stroke:#1ABC9C;stroke-linecap:square;stroke-linejoin:round;stroke-miterlimit:10;}
	.st2{fill:#16A085;}
	.st3{clip-path:url(#XMLID_7_);fill:none;stroke:#16A085;stroke-linecap:square;stroke-linejoin:round;stroke-miterlimit:10;}
</style>
<g id="XMLID_26_">
	<polygon id="XMLID_6_" class="st0" points="33.9,24.9 33.9,24.5 43.4,24.5 24.2,4.8 4.8,24.5 14.5,24.5 14.5,43.2 33.9,43.2 
		33.9,25.1 	"/>
	<polyline id="XMLID_5_" class="st1" points="33.9,24.9 33.9,24.5 43.4,24.5 24.2,4.8 4.8,24.5 14.5,24.5 14.5,43.2 33.9,43.2 
		33.9,25.1 33.9,24.9 	"/>
	<polygon id="XMLID_4_" class="st2" points="24.1,4.9 24.1,43.2 33.9,43.2 33.9,25.1 33.9,24.9 33.9,24.5 43.4,24.5 24.2,4.8 	"/>
	<g id="XMLID_28_">
		<defs>
			<rect id="XMLID_2_" x="24.1" y="4.5" width="28.9" height="39.1"/>
		</defs>
		<clipPath id="XMLID_7_">
			<use xlink:href="#XMLID_2_"  style="overflow:visible;"/>
		</clipPath>
		<polyline id="XMLID_3_" class="st3" points="33.9,24.9 33.9,24.5 43.4,24.5 24.2,4.8 4.8,24.5 14.5,24.5 14.5,43.2 33.9,43.2 
			33.9,25.1 33.9,24.9 		"/>
	</g>
</g>
</svg>
