<?xml version="1.0" encoding="utf-8"?>
<!-- Generator: Adobe Illustrator 19.0.0, SVG Export Plug-In . SVG Version: 6.00 Build 0)  -->
<svg version="1.1" xmlns="http://www.w3.org/2000/svg" xmlns:xlink="http://www.w3.org/1999/xlink" x="0px" y="0px" width="567px"
	 height="252px" viewBox="0 0 567 252" style="enable-background:new 0 0 567 252;" xml:space="preserve">
<style type="text/css">
	.st0{display:none;}
	.st1{display:inline;fill:#999999;stroke:#ED7D31;stroke-width:0.75;stroke-miterlimit:10;}
	.st2{display:inline;fill:#333333;stroke:#ED7D31;stroke-width:0.75;stroke-miterlimit:10;}
	.st3{fill:#ED7D31;}
	.st4{fill:#AAAAAA;}
	.st5{fill:#333333;stroke:#ED7D31;stroke-width:7;stroke-miterlimit:10;}
	.st6{fill:#999999;stroke:#ED7D31;stroke-width:7;stroke-linecap:square;stroke-miterlimit:10;}
</style>
<g id="Capa_2">
</g>
<g id="Capa_1">
	<g id="XMLID_39_" class="st0">
		<polyline id="XMLID_20_" class="st1" points="279.5,123.6 287.6,115.5 294.3,122.3 284,132.6 281.8,130.4 289.8,122.4 
			287.5,120.1 279.5,128.1 		"/>
		<path id="XMLID_2_" class="st2" d="M281.8,125.8"/>
		<polyline id="XMLID_3_" class="st2" points="281.8,125.8 279.5,128.1 272.7,121.3 283,111 285.2,113.2 277.2,121.2 279.5,123.6 
			279.5,127.6 		"/>
	</g>
	<g id="XMLID_37_">
		<path id="XMLID_64_" class="st3" d="M85,241h-31c-0.5,0-0.9-0.1-1.4-0.3c-0.4-0.2-0.8-0.4-1.1-0.7c-0.3-0.3-0.5-0.7-0.7-1.1
			c-0.2-0.4-0.3-0.9-0.3-1.4v-34h6.8v30.6H85V241z"/>
		<path id="XMLID_61_" class="st4" d="M120,231.5c0,1.2-0.1,2.2-0.4,3.1c-0.3,0.9-0.7,1.7-1.2,2.5c-0.5,0.7-1.1,1.3-1.7,1.8
			c-0.6,0.5-1.3,0.9-2,1.2c-0.7,0.3-1.4,0.5-2.1,0.7c-0.7,0.1-1.4,0.2-2,0.2H98.2c-0.9,0-2-0.2-3.1-0.5c-1.1-0.3-2.1-0.9-3.1-1.6
			c-0.9-0.8-1.7-1.7-2.4-2.9c-0.6-1.2-1-2.7-1-4.5v-9.2c0-1.7,0.3-3.2,1-4.4c0.6-1.2,1.4-2.2,2.4-2.9c0.9-0.8,2-1.3,3.1-1.6
			c1.1-0.3,2.1-0.5,3.1-0.5h12.2c1.7,0,3.2,0.3,4.4,0.9c1.2,0.6,2.2,1.4,2.9,2.4c0.7,0.9,1.3,2,1.6,3.1c0.3,1.1,0.5,2.1,0.5,3.1
			V231.5z M113.2,222.4c0-0.9-0.2-1.6-0.7-2.1c-0.5-0.5-1.1-0.7-2-0.7H98.2c-0.9,0-1.6,0.2-2.1,0.7c-0.5,0.5-0.7,1.1-0.7,2v9.2
			c0,0.9,0.2,1.6,0.7,2c0.5,0.5,1.2,0.7,2.1,0.7h12.2c0.9,0,1.6-0.2,2.1-0.7c0.5-0.5,0.7-1.1,0.7-2V222.4z"/>
		<path id="XMLID_59_" class="st4" d="M154.9,231.7c0,0.9-0.2,2-0.5,3c-0.3,1.1-0.9,2.1-1.6,3c-0.7,0.9-1.7,1.7-2.9,2.3
			c-1.2,0.6-2.6,0.9-4.3,0.9h-12.2c-0.9,0-2-0.2-3-0.5c-1.1-0.3-2.1-0.9-3-1.6c-0.9-0.7-1.7-1.7-2.3-2.9c-0.6-1.2-0.9-2.6-0.9-4.3
			c0-0.9,0.2-2,0.5-3.1c0.3-1.1,0.9-2.1,1.6-3c0.7-0.9,1.7-1.7,2.9-2.3c1.2-0.6,2.6-0.9,4.3-0.9h12.2v6.5h-12.2
			c-0.9,0-1.6,0.3-2.1,0.8c-0.5,0.6-0.8,1.3-0.8,2.1c0,0.9,0.3,1.6,0.9,2.1c0.6,0.5,1.3,0.7,2.1,0.7h12.2c0.9,0,1.6-0.3,2.1-0.8
			c0.5-0.6,0.8-1.3,0.8-2.1v-9.5c0-0.9-0.3-1.6-0.8-2.1c-0.5-0.5-1.2-0.8-2.1-0.8h-14.9v-6.4h14.9c0.9,0,2,0.2,3,0.5
			c1.1,0.3,2.1,0.9,3,1.6c0.9,0.7,1.7,1.7,2.3,2.9c0.6,1.2,0.9,2.6,0.9,4.3V231.7z"/>
		<path id="XMLID_57_" class="st4" d="M191.6,231.5c0,1.2-0.1,2.2-0.4,3.1c-0.3,0.9-0.7,1.7-1.2,2.5c-0.5,0.7-1.1,1.3-1.7,1.8
			c-0.6,0.5-1.3,0.9-2,1.2c-0.7,0.3-1.4,0.5-2.1,0.7c-0.7,0.1-1.4,0.2-2,0.2h-12.2c-1.2,0-2.2-0.1-3.1-0.4c-0.9-0.3-1.7-0.7-2.4-1.2
			c-0.7-0.5-1.3-1.1-1.8-1.7c-0.5-0.6-0.9-1.3-1.2-2c-0.3-0.7-0.5-1.4-0.7-2.1c-0.1-0.7-0.2-1.4-0.2-2v-9.2c0-1.7,0.3-3.2,1-4.4
			c0.6-1.2,1.4-2.2,2.4-2.9c0.9-0.8,2-1.3,3.1-1.6c1.1-0.3,2.1-0.5,3.1-0.5h12.2v6.8h-12.2c-0.9,0-1.6,0.2-2.1,0.7
			c-0.5,0.5-0.7,1.1-0.7,2v9.1c0,0.9,0.2,1.6,0.7,2.1c0.5,0.5,1.1,0.7,2,0.7h12.2c0.9,0,1.6-0.2,2.1-0.7c0.5-0.5,0.7-1.1,0.7-2
			v-30.6h6.8V231.5z"/>
		<path id="XMLID_55_" class="st4" d="M225.4,231.5c0,1.2-0.1,2.2-0.4,3.1c-0.3,0.9-0.7,1.7-1.2,2.5c-0.5,0.7-1.1,1.3-1.7,1.8
			c-0.6,0.5-1.3,0.9-2,1.2c-0.7,0.3-1.4,0.5-2.1,0.7c-0.7,0.1-1.4,0.2-2,0.2h-18.4v-6.8h18.3c0.9,0,1.6-0.2,2.1-0.7
			c0.5-0.5,0.7-1.1,0.7-2c-0.1-1.8-1-2.7-2.7-2.7h-10.5c-1.5,0-2.8-0.3-3.8-0.8s-1.9-1.2-2.5-2c-0.7-0.8-1.1-1.6-1.4-2.5
			c-0.3-0.9-0.4-1.7-0.4-2.5c0-1.5,0.3-2.8,0.8-3.8c0.5-1,1.2-1.9,2-2.5c0.8-0.6,1.7-1.1,2.7-1.4c1-0.3,1.9-0.4,2.7-0.4H222v6.8
			h-16.6c-0.3,0-0.6,0-0.8,0.1c-0.2,0.1-0.3,0.2-0.4,0.3c-0.1,0.1-0.2,0.3-0.2,0.4c0,0.1,0,0.3,0,0.4c0,0.3,0.1,0.5,0.2,0.7
			c0.1,0.2,0.2,0.3,0.3,0.3c0.1,0.1,0.3,0.1,0.4,0.1c0.2,0,0.3,0,0.5,0h10.5c1.7,0,3.2,0.3,4.4,0.9c1.2,0.6,2.2,1.4,2.9,2.4
			c0.7,0.9,1.3,2,1.6,3.1C225.2,229.5,225.4,230.5,225.4,231.5z"/>
		<path id="XMLID_53_" class="st3" d="M284.2,230c0,1.3-0.2,2.5-0.5,3.6c-0.3,1.1-0.8,2-1.3,2.8c-0.6,0.8-1.2,1.5-2,2.1
			c-0.7,0.6-1.5,1-2.3,1.4c-0.8,0.4-1.6,0.6-2.4,0.8c-0.8,0.2-1.6,0.3-2.3,0.3h-26.2v-6.8h26.2c1.3,0,2.3-0.4,3-1.1
			c0.7-0.8,1.1-1.8,1.1-3.1c0-0.6-0.1-1.2-0.3-1.7c-0.2-0.5-0.5-1-0.8-1.4c-0.4-0.4-0.8-0.7-1.3-0.9c-0.5-0.2-1.1-0.3-1.7-0.3h-15.6
			c-1.1,0-2.3-0.2-3.6-0.6c-1.3-0.4-2.4-1-3.5-1.9c-1.1-0.9-2-2-2.7-3.4c-0.7-1.4-1.1-3.1-1.1-5.2s0.4-3.8,1.1-5.2
			c0.7-1.4,1.6-2.5,2.7-3.4c1.1-0.9,2.3-1.5,3.5-1.9c1.3-0.4,2.5-0.6,3.6-0.6h23.1v6.8h-23.1c-1.3,0-2.3,0.4-3,1.2
			c-0.7,0.8-1.1,1.8-1.1,3.1c0,1.3,0.4,2.3,1.1,3.1c0.7,0.8,1.7,1.1,3,1.1h15.6h0.1c0.7,0,1.5,0.1,2.3,0.3c0.8,0.2,1.6,0.5,2.4,0.8
			c0.8,0.4,1.6,0.9,2.3,1.4c0.7,0.6,1.4,1.3,1.9,2.1c0.6,0.8,1,1.8,1.3,2.8C284.1,227.5,284.2,228.7,284.2,230z"/>
		<path id="XMLID_51_" class="st4" d="M316.4,241H298c-0.9,0-2-0.2-3.1-0.5c-1.1-0.3-2.1-0.9-3.1-1.6c-0.9-0.8-1.7-1.7-2.4-2.9
			c-0.6-1.2-1-2.7-1-4.5v-9.2c0-0.6,0.1-1.3,0.2-2c0.1-0.7,0.4-1.4,0.7-2.1c0.3-0.7,0.7-1.4,1.2-2c0.5-0.6,1.1-1.2,1.8-1.7
			c0.7-0.5,1.5-0.9,2.4-1.2c0.9-0.3,2-0.4,3.1-0.4h18.4v6.8H298c-0.9,0-1.6,0.2-2,0.7c-0.5,0.5-0.7,1.1-0.7,2.1v9.1
			c0,0.9,0.2,1.6,0.7,2c0.5,0.5,1.2,0.7,2.1,0.7h18.4V241z"/>
		<path id="XMLID_48_" class="st4" d="M328.9,241h-6.8v-40.1h6.8V241z M353.4,241h-6.8v-18.7c0-0.9-0.2-1.6-0.7-2
			c-0.5-0.5-1.1-0.7-2-0.7h-12.2v-6.8h12.2c0.6,0,1.3,0.1,2,0.2c0.7,0.1,1.4,0.4,2.1,0.7c0.7,0.3,1.4,0.7,2,1.2
			c0.6,0.5,1.2,1.1,1.7,1.8c0.5,0.7,0.9,1.5,1.2,2.4c0.3,0.9,0.4,2,0.4,3.1V241z"/>
		<path id="XMLID_46_" class="st4" d="M390,222.1c0,0.9-0.2,2-0.5,3c-0.3,1.1-0.9,2.1-1.6,3c-0.7,0.9-1.7,1.7-2.9,2.3
			c-1.2,0.6-2.6,0.9-4.3,0.9h-12.2V225h12.2c0.9,0,1.6-0.3,2.1-0.8c0.5-0.6,0.8-1.3,0.8-2.1c0-0.9-0.3-1.6-0.8-2.1
			c-0.6-0.5-1.2-0.8-2-0.8h-12.2c-0.9,0-1.6,0.3-2.1,0.8c-0.5,0.6-0.8,1.3-0.8,2.1v9.5c0,0.9,0.3,1.6,0.8,2.1
			c0.6,0.5,1.3,0.8,2.1,0.8h12.2v6.5h-12.2c-0.9,0-2-0.2-3-0.5c-1.1-0.3-2.1-0.9-3-1.6c-0.9-0.7-1.7-1.7-2.3-2.9
			c-0.6-1.2-0.9-2.6-0.9-4.3v-9.5c0-0.9,0.2-2,0.5-3c0.3-1.1,0.9-2.1,1.6-3c0.7-0.9,1.7-1.7,2.9-2.3c1.2-0.6,2.6-0.9,4.3-0.9h12.2
			c0.9,0,2,0.2,3,0.5c1.1,0.3,2.1,0.9,3,1.6c0.9,0.7,1.7,1.7,2.3,2.9C389.7,219,390,220.4,390,222.1z"/>
		<path id="XMLID_44_" class="st4" d="M425.5,231.5c0,1.2-0.1,2.2-0.4,3.1c-0.3,0.9-0.7,1.7-1.2,2.5c-0.5,0.7-1.1,1.3-1.7,1.8
			c-0.6,0.5-1.3,0.9-2,1.2c-0.7,0.3-1.4,0.5-2.1,0.7c-0.7,0.1-1.4,0.2-2,0.2h-12.2c-1.2,0-2.2-0.1-3.1-0.4c-0.9-0.3-1.7-0.7-2.4-1.2
			c-0.7-0.5-1.3-1.1-1.8-1.7c-0.5-0.6-0.9-1.3-1.2-2c-0.3-0.7-0.5-1.4-0.7-2.1c-0.1-0.7-0.2-1.4-0.2-2v-9.2c0-1.7,0.3-3.2,1-4.4
			c0.6-1.2,1.4-2.2,2.4-2.9c0.9-0.8,2-1.3,3.1-1.6c1.1-0.3,2.1-0.5,3.1-0.5H416v6.8h-12.2c-0.9,0-1.6,0.2-2.1,0.7
			c-0.5,0.5-0.7,1.1-0.7,2v9.1c0,0.9,0.2,1.6,0.7,2.1c0.5,0.5,1.1,0.7,2,0.7H416c0.9,0,1.6-0.2,2.1-0.7c0.5-0.5,0.7-1.1,0.7-2v-30.6
			h6.8V231.5z"/>
		<path id="XMLID_42_" class="st4" d="M462.9,237.6c0,0.5-0.1,0.9-0.3,1.4c-0.2,0.4-0.4,0.8-0.7,1.1c-0.3,0.3-0.7,0.5-1.1,0.7
			c-0.4,0.2-0.8,0.3-1.3,0.3h-15.3c-0.8,0-1.7-0.1-2.7-0.3c-0.9-0.2-1.9-0.5-2.8-0.9c-0.9-0.4-1.8-1-2.7-1.6
			c-0.9-0.7-1.6-1.4-2.3-2.4c-0.6-0.9-1.2-2-1.6-3.2c-0.4-1.2-0.6-2.6-0.6-4.1v-15.7h6.8v15.7c0,0.9,0.2,1.7,0.5,2.4
			c0.3,0.7,0.7,1.3,1.2,1.8c0.5,0.5,1.1,0.9,1.8,1.2c0.7,0.3,1.5,0.4,2.3,0.4h11.9v-21.4h6.8V237.6z"/>
		<path id="XMLID_40_" class="st4" d="M481.6,241h-3c-1,0-2-0.2-3.1-0.5c-1.1-0.3-2.1-0.9-3.1-1.6c-1-0.8-1.7-1.7-2.4-2.9
			c-0.6-1.2-0.9-2.7-0.9-4.5v-30.6h6.8v30.6c0,0.8,0.3,1.5,0.8,2c0.5,0.5,1.2,0.7,2,0.7h3V241z"/>
		<path id="XMLID_38_" class="st4" d="M516.4,222.1c0,0.9-0.2,2-0.5,3c-0.3,1.1-0.9,2.1-1.6,3c-0.7,0.9-1.7,1.7-2.9,2.3
			c-1.2,0.6-2.6,0.9-4.3,0.9h-12.2V225H507c0.9,0,1.6-0.3,2.1-0.8c0.5-0.6,0.8-1.3,0.8-2.1c0-0.9-0.3-1.6-0.8-2.1
			c-0.6-0.5-1.2-0.8-2-0.8h-12.2c-0.9,0-1.6,0.3-2.1,0.8c-0.5,0.6-0.8,1.3-0.8,2.1v9.5c0,0.9,0.3,1.6,0.8,2.1
			c0.6,0.5,1.3,0.8,2.1,0.8H507v6.5h-12.2c-0.9,0-2-0.2-3-0.5c-1.1-0.3-2.1-0.9-3-1.6c-0.9-0.7-1.7-1.7-2.3-2.9
			c-0.6-1.2-0.9-2.6-0.9-4.3v-9.5c0-0.9,0.2-2,0.5-3c0.3-1.1,0.9-2.1,1.6-3c0.7-0.9,1.7-1.7,2.9-2.3c1.2-0.6,2.6-0.9,4.3-0.9H507
			c0.9,0,2,0.2,3,0.5c1.1,0.3,2.1,0.9,3,1.6c0.9,0.7,1.7,1.7,2.3,2.9C516,219,516.4,220.4,516.4,222.1z"/>
	</g>
	<g id="XMLID_5_">
		<polygon id="XMLID_4_" class="st5" points="297.1,27.9 232.1,92.9 269.2,130.1 250.9,148.4 195.9,93.4 279.2,10 		"/>
		<polyline id="XMLID_1_" class="st6" points="251,111.8 316.6,46.5 370.7,101.5 287.3,184.8 269.6,167.1 334.6,102.1 315.9,83.4 
			250.9,148.4 		"/>
	</g>
</g>
</svg>
