<?xml version="1.0" encoding="utf-8"?>
<!-- Generator: Adobe Illustrator 19.0.0, SVG Export Plug-In . SVG Version: 6.00 Build 0)  -->
<svg version="1.1" id="Capa_3" xmlns="http://www.w3.org/2000/svg" xmlns:xlink="http://www.w3.org/1999/xlink" x="0px" y="0px"
	 width="48px" height="48px" viewBox="0 0 48 48" style="enable-background:new 0 0 48 48;" xml:space="preserve">
<style type="text/css">
	.st0{fill:#FFFFFF;stroke:#333333;stroke-width:2;stroke-miterlimit:10;}
</style>
<path id="XMLID_27_" class="st0" d="M44.5,8.2H3.9c-1.3,0-2.4,1.1-2.4,2.4v25.3c0,1.3,1,2.8,2.4,2.8h26.1c0.3,0,0.6,0.1,0.8,0.3
	l8,6.7c0.6,0.5,1.7-0.1,1.7-0.8v-5.6c0-0.3,0.3-0.6,0.6-0.6h3.1c1.3,0,2.4-1.4,2.4-2.8V10.2C46.5,9.1,45.6,8.2,44.5,8.2z M36.5,19.8
	c1.8,0,3.2,1.4,3.2,3.2c0,1.8-1.4,3.2-3.2,3.2c-1.8,0-3.2-1.4-3.2-3.2C33.3,21.2,34.8,19.8,36.5,19.8z M11.5,26.2
	c-1.8,0-3.2-1.4-3.2-3.2c0-1.8,1.4-3.2,3.2-3.2c1.8,0,3.2,1.4,3.2,3.2C14.7,24.8,13.2,26.2,11.5,26.2z M24,26.2
	c-1.8,0-3.2-1.4-3.2-3.2c0-1.8,1.4-3.2,3.2-3.2s3.2,1.4,3.2,3.2C27.2,24.8,25.8,26.2,24,26.2z"/>
<path id="XMLID_18_" class="st0" d="M14.7,23c0,1.8-1.4,3.2-3.2,3.2c-1.8,0-3.2-1.4-3.2-3.2c0-1.8,1.4-3.2,3.2-3.2
	C13.2,19.8,14.7,21.2,14.7,23z"/>
<path id="XMLID_19_" class="st0" d="M27.2,23c0,1.8-1.4,3.2-3.2,3.2s-3.2-1.4-3.2-3.2c0-1.8,1.4-3.2,3.2-3.2S27.2,21.2,27.2,23z"/>
<path id="XMLID_20_" class="st0" d="M39.7,23c0,1.8-1.4,3.2-3.2,3.2c-1.8,0-3.2-1.4-3.2-3.2c0-1.8,1.4-3.2,3.2-3.2
	C38.3,19.8,39.7,21.2,39.7,23z"/>
<path id="XMLID_15_" class="st0" d="M27.2,23c0,1.8-1.4,3.2-3.2,3.2s-3.2-1.4-3.2-3.2c0-1.8,1.4-3.2,3.2-3.2S27.2,21.2,27.2,23z"/>
<path id="XMLID_14_" class="st0" d="M39.7,23c0,1.8-1.4,3.2-3.2,3.2c-1.8,0-3.2-1.4-3.2-3.2c0-1.8,1.4-3.2,3.2-3.2
	C38.3,19.8,39.7,21.2,39.7,23z"/>
<path id="XMLID_13_" class="st0" d="M14.7,23c0,1.8-1.4,3.2-3.2,3.2c-1.8,0-3.2-1.4-3.2-3.2c0-1.8,1.4-3.2,3.2-3.2
	C13.2,19.8,14.7,21.2,14.7,23z"/>
</svg>
