<?xml version="1.0" encoding="utf-8"?>
<!-- Generator: Adobe Illustrator 21.0.0, SVG Export Plug-In . SVG Version: 6.00 Build 0)  -->
<svg version="1.1" xmlns="http://www.w3.org/2000/svg" xmlns:xlink="http://www.w3.org/1999/xlink" x="0px" y="0px" width="142px"
	 height="142px" viewBox="0 0 142 142" enable-background="new 0 0 142 142" xml:space="preserve">
<g id="editar_x5F_01">
</g>
<g id="editar_x5F_02">
</g>
<g id="administrativo">
</g>
<g id="calendario">
</g>
<g id="descargar_x5F_pdf">
</g>
<g id="eliminar_x5F_carga_x5F_01">
</g>
<g id="eliminar_x5F_carga_x5F_02">
</g>
<g id="permanencia_x5F_01">
</g>
<g id="permanencia_x5F_02">
</g>
<g id="respaldo">
</g>
<g id="visualizar_x5F_admin">
</g>
<g id="visualizar_x5F_usuario">
</g>
<g id="ajustes">
</g>
<g id="cambar_x5F_contraseña">
</g>
<g id="editar_x5F_profesor">
</g>
<g id="nuevo_x5F_profesor">
</g>
<g id="profesor">
</g>
<g id="restablecer">
</g>
<g id="subir_x5F_cargas">
	<g>
		<path id="XMLID_106_" fill="none" stroke="#444444" stroke-width="2" stroke-miterlimit="10" d="M127.549,19H15.326
			c-3.602,0-6.522,2.92-6.522,6.522v69.895c0,3.698,2.791,7.632,6.522,7.632h72.025c0.796,0,1.567,0.28,2.176,0.792l22.237,18.657
			c1.547,1.345,4.623-0.218,4.623-2.269V104.73c0-0.929,0.753-1.681,1.681-1.681h8.607c3.732,0,6.522-3.934,6.522-7.632v-70.77
			C133.197,21.528,130.668,19,127.549,19z"/>
		<path id="XMLID_105_" fill="none" stroke="#444444" stroke-width="2" stroke-miterlimit="10" d="M45.247,60.049
			c0,4.875-3.967,8.842-8.876,8.842c-4.909,0-8.876-3.967-8.876-8.842c0-4.908,3.967-8.876,8.876-8.876
			C41.28,51.174,45.247,55.141,45.247,60.049z"/>
		<path id="XMLID_104_" fill="none" stroke="#444444" stroke-width="2" stroke-miterlimit="10" d="M79.876,60.049
			c0,4.875-3.967,8.842-8.876,8.842c-4.909,0-8.876-3.967-8.876-8.842c0-4.908,3.967-8.876,8.876-8.876
			C75.909,51.174,79.876,55.141,79.876,60.049z"/>
		<path id="XMLID_103_" fill="none" stroke="#444444" stroke-width="2" stroke-miterlimit="10" d="M114.504,60.049
			c0,4.875-3.967,8.842-8.876,8.842c-4.908,0-8.876-3.967-8.876-8.842c0-4.908,3.967-8.876,8.876-8.876
			C110.537,51.174,114.504,55.141,114.504,60.049z"/>
	</g>
</g>
</svg>
