<?xml version="1.0" encoding="utf-8"?>
<!-- Generator: Adobe Illustrator 16.0.0, SVG Export Plug-In . SVG Version: 6.00 Build 0)  -->
<!DOCTYPE svg PUBLIC "-//W3C//DTD SVG 1.1//EN" "http://www.w3.org/Graphics/SVG/1.1/DTD/svg11.dtd">
<svg version="1.1" xmlns="http://www.w3.org/2000/svg" xmlns:xlink="http://www.w3.org/1999/xlink" x="0px" y="0px" width="142px"
	 height="142px" viewBox="0 0 142 142" enable-background="new 0 0 142 142" xml:space="preserve">
<g id="color">
	<path fill="#0088C2" d="M64.4,114.711l3.096-15.313c0,0-4.261-0.472-3.607-6.902c1.517-0.923,7.184-4.368,7.184-4.368l7,4.368
		c0,0,1.095,5.296-3.333,7.08c0.475,1.935,3.707,15.136,3.707,15.136l-6.792,21.18L64.4,114.711z"/>
	<path fill="#CCCCCC" d="M52.647,80.404L64.4,114.711l3.096-15.313c0,0-4.53-0.874-3.607-6.902c-2.06,1.252-3.996,2.43-3.996,2.43
		L52.647,80.404"/>
	<path fill="#CCCCCC" d="M89.499,80.252l-11.052,34.459L74.74,99.575c0,0,4.115-1.857,3.333-7.08
		c1.311,0.817,4.181,2.608,4.181,2.608L89.499,80.252"/>
	<path fill="#D1A574" d="M71.073,88.127l15.585-12.852l-1.414-4.089c0,0-10.958,16.45-27.904,0.368
		c-0.263,0.84-1.343,3.721-1.343,3.721L71.073,88.127z"/>
	<path fill="#FFFFFF" d="M71.073,88.127l11.181,6.977l7.245-14.699c0,0-2.461-3.44-2.841-5.129
		C85.071,76.538,71.073,88.127,71.073,88.127z"/>
	<path fill="#FFFFFF" d="M71.073,88.127L55.997,75.275c0,0-1.561,3.801-3.171,4.977c-0.178,0.152,7.068,14.673,7.068,14.673
		L71.073,88.127z"/>
	<path fill="#666666" d="M44.225,45.859c0,0-0.197-23.302,3.935-27.469c4.131-4.168,7.265-7.085,11.21-7.769
		c0.088-0.973,0.31-3.945,1.071-4.638c0.586,0.913,2.745,2.792,3.953,3.063c-0.296-0.854-1.021-3.842,0.008-5.631
		c1.13,0.604,11.551,5.205,17.651,7.12s11.269,6.702,13.381,11.42c2.113,4.718,2.965,14.894,1.824,23.938
		c-0.791-0.041-2.689,0.424-2.854,1.022c-0.165,0.598-0.595,3.3-2.468,2.709S90,48.387,90,45.893s0-12.154,0-12.154
		s-0.474-8.829-17.379-8.931c-16.905-0.103-20.899,5.443-21.704,8.037c-0.179,2.594-0.311,13.048-0.311,13.048
		s0.656,4.245-1.461,3.559c-1.402-0.507-1.678-2.296-1.678-2.296S47.34,45.726,44.225,45.859z"/>
	<path fill="#E5B680" d="M49.998,59.89c0,0-6.743,0.816-8.174-9.649c-0.625-5.098,1.745-5.77,3.256-5.466
		c1.511,0.305,2.097-0.048,2.797,2.172c0.7,2.221,2.66,1.516,2.686,0.125c0.027-1.392,0.027-14.406,0.027-14.406
		s1.193-9.258,19.715-8.922s19.999,8.251,19.999,8.989s0.003,13.752,0.003,13.752s1.606,4.338,3.753,0.492
		c2.147-3.846,2.407-2.197,2.407-2.197s3.576,0.303,3.932,1.754c0.355,1.452,0.414,3.173,0,4.518
		c-0.414,1.344-1.944,8.446-7.831,8.849c-0.64,1.558-3.325,8.154-6.954,11.926c-1.972,2.367-13.479,15.207-28.611,0.434
		C54.213,69.964,49.998,59.89,49.998,59.89z"/>
	<ellipse fill="#666666" cx="61.726" cy="46.015" rx="2.952" ry="2.885"/>
	<ellipse fill="#666666" cx="79.973" cy="46.015" rx="2.952" ry="2.885"/>
	<path fill="#444444" d="M20,140h104.114c0,0-4.149-25.518-7.352-35.299c-2.309-6.652-7.642-10.729-11.831-13.693
		c-4.189-2.966-15.433-10.604-15.433-10.604l-17.844,55.486L52.822,80.913c0,0-15.821,9.62-17.754,11.446
		c-1.934,1.827-8.529,8.04-10.412,14.69C22.773,113.701,20,140,20,140z"/>
</g>
<g id="sombra">
	<path fill="#333333" d="M89.634,80.404c0,0,18.459,12.739,20.059,14.236s5.741,5.576,6.954,9.649s3.493,14.06,3.493,14.06
		l3.975,21.65h-12.88c0,0-2.28-19.187-2.75-20.997c-0.47-1.812-1.812-13.552-2.349-14.558c0,0-9.084-12.524-17.96-19.925
		C88.694,82.934,89.634,80.404,89.634,80.404z"/>
	<polygon fill="#AAAAAA" points="88.176,84.521 87.665,84.125 89.499,80.404 	"/>
	<polygon fill="#DDDDDD" points="87.665,84.125 84.177,77.304 86.658,75.275 89.499,80.404 	"/>
	<path fill="#BE905F" d="M84.177,77.304l-1.252-2.743c0,0,2.244-2.246,2.689-2.734c0.007,0.447,1.044,3.449,1.044,3.449
		L84.177,77.304z"/>
	<path fill="#D7AC76" d="M96.468,44.779c0,0,3.706,0.461,3.932,1.754s0.636,3.839-0.939,7.396c-1.575,3.557-4.225,5.769-6.892,5.971
		c-0.782,1.845-4.264,9.193-6.954,11.926c-2.689,2.734-4.501,5.924-12.618,7.432c5.031-2.585,15.497-12.447,16.905-20.899
		c0.671-0.268,4.093,0,5.501-2.616c1.409-2.616,3.117-6.104,2.364-8.989c0,0-1.551-2.161-3.478-0.177
		C94.628,45.836,95.548,44.779,96.468,44.779"/>
	<path fill="#555555" d="M97.387,44.779c0,0,1.231-14.118-1.182-20.674c-2.412-6.557-6.797-10.224-12.028-12.773
		c-3.108-1.116-6.185-2.204-7.155-2.579c0,0,7.738,2.802,12.12,8.08c4.383,5.277,6.231,24.464,5.486,29.003
		c0.581-0.661,1.267-1.019,1.4-1.057C96.162,44.74,97.387,44.779,97.387,44.779z"/>
</g>
<g id="agregar">
	<polyline fill="#20A89A" points="44,81 59,81 59,72 44,72 44,57 35,57 35,72 20,72 20,81 35,81 35,96 44,96 44,81 	"/>
	<path fill="#20A89A" d="M36.1,55.34"/>
</g>
</svg>
