<?xml version="1.0" encoding="utf-8"?>
<!-- Generator: Adobe Illustrator 19.0.0, SVG Export Plug-In . SVG Version: 6.00 Build 0)  -->
<svg version="1.1" xmlns="http://www.w3.org/2000/svg" xmlns:xlink="http://www.w3.org/1999/xlink" x="0px" y="0px" width="172px"
	 height="142px" viewBox="0 0 172 142" enable-background="new 0 0 172 142" xml:space="preserve">
<g id="Capa_6">
	<path fill="#0088C2" d="M98.4,112.711l3.096-15.313c0,0-4.261-0.472-3.607-6.902c1.517-0.923,7.184-4.368,7.184-4.368l7,4.368
		c0,0,1.095,5.296-3.333,7.08c0.475,1.935,3.707,15.136,3.707,15.136l-6.792,21.18L98.4,112.711z"/>
	<path fill="#CCCCCC" d="M86.647,78.404L98.4,112.711l3.096-15.313c0,0-4.53-0.874-3.607-6.902c-2.06,1.252-3.996,2.43-3.996,2.43
		L86.647,78.404"/>
	<path fill="#CCCCCC" d="M123.499,78.252l-11.052,34.459l-3.707-15.136c0,0,4.115-1.857,3.333-7.08
		c1.311,0.817,4.181,2.608,4.181,2.608L123.499,78.252"/>
	<path fill="#D1A574" d="M105.073,86.127l15.585-12.852l-1.414-4.089c0,0-10.958,16.45-27.904,0.368
		c-0.263,0.84-1.343,3.721-1.343,3.721L105.073,86.127z"/>
	<path fill="#FFFFFF" d="M105.073,86.127l11.181,6.977l7.245-14.699c0,0-2.461-3.44-2.841-5.129
		C119.071,74.538,105.073,86.127,105.073,86.127z"/>
	<path fill="#FFFFFF" d="M105.073,86.127L89.997,73.275c0,0-1.561,3.801-3.171,4.977c-0.178,0.152,7.068,14.673,7.068,14.673
		L105.073,86.127z"/>
	<path fill="#666666" d="M78.225,43.859c0,0-0.197-23.302,3.935-27.469c4.131-4.168,7.265-7.085,11.21-7.769
		c0.088-0.973,0.31-3.945,1.071-4.638c0.587,0.913,2.745,2.791,3.953,3.063c-0.296-0.854-1.021-3.842,0.008-5.631
		c1.13,0.604,11.551,5.205,17.651,7.12c6.101,1.915,11.269,6.702,13.381,11.42c2.113,4.718,2.965,14.893,1.824,23.938
		c-0.791-0.041-2.689,0.424-2.854,1.022c-0.165,0.598-0.595,3.3-2.468,2.709c-1.873-0.591-1.937-1.237-1.937-3.731
		c0-2.494,0-12.154,0-12.154s-0.474-8.829-17.379-8.931c-16.905-0.103-20.899,5.443-21.704,8.037
		c-0.179,2.594-0.311,13.048-0.311,13.048s0.656,4.245-1.461,3.559c-1.402-0.507-1.678-2.296-1.678-2.296
		S81.34,43.726,78.225,43.859z"/>
	<path fill="#E5B680" d="M83.998,57.89c0,0-6.743,0.816-8.174-9.649c-0.626-5.098,1.745-5.77,3.256-5.466
		c1.511,0.305,2.097-0.048,2.797,2.172c0.7,2.221,2.66,1.516,2.686,0.125c0.027-1.392,0.027-14.406,0.027-14.406
		s1.193-9.258,19.715-8.922c18.522,0.335,19.999,8.251,19.999,8.989c0,0.738,0.003,13.753,0.003,13.753s1.606,4.338,3.753,0.492
		c2.147-3.846,2.407-2.197,2.407-2.197s3.576,0.303,3.932,1.754c0.355,1.452,0.414,3.173,0,4.518
		c-0.414,1.344-1.944,8.446-7.831,8.849c-0.64,1.558-3.325,8.154-6.954,11.926c-1.972,2.367-13.479,15.207-28.611,0.434
		C88.213,67.964,83.998,57.89,83.998,57.89z"/>
	<ellipse fill="#666666" cx="95.726" cy="44.015" rx="2.952" ry="2.885"/>
	<ellipse fill="#666666" cx="113.973" cy="44.015" rx="2.952" ry="2.885"/>
	<path fill="#444444" d="M54,138h104.114c0,0-4.15-25.518-7.352-35.299c-2.309-6.652-7.642-10.729-11.831-13.693
		c-4.189-2.966-15.433-10.604-15.433-10.604l-17.844,55.486L86.822,78.913c0,0-15.821,9.62-17.754,11.446
		c-1.934,1.827-8.529,8.04-10.412,14.69C56.773,111.701,54,138,54,138z"/>
	<path fill="#333333" d="M123.634,78.404c0,0,18.459,12.739,20.059,14.236c1.6,1.497,5.741,5.576,6.954,9.649
		c1.213,4.073,3.493,14.06,3.493,14.06l3.975,21.65h-12.88c0,0-2.28-19.187-2.75-20.997c-0.47-1.812-1.811-13.552-2.349-14.558
		c0,0-9.084-12.524-17.96-19.925C122.694,80.934,123.634,78.404,123.634,78.404z"/>
	<polygon fill="#AAAAAA" points="122.176,82.521 121.665,82.125 123.499,78.404 	"/>
	<polygon fill="#DDDDDD" points="121.665,82.125 118.177,75.304 120.658,73.275 123.499,78.404 	"/>
	<path fill="#BE905F" d="M118.177,75.304l-1.252-2.743c0,0,2.244-2.246,2.69-2.734c0.007,0.447,1.044,3.449,1.044,3.449
		L118.177,75.304z"/>
	<path fill="#D7AC76" d="M130.468,42.779c0,0,3.706,0.461,3.932,1.754c0.226,1.293,0.636,3.839-0.939,7.396
		c-1.575,3.557-4.225,5.769-6.892,5.971c-0.782,1.845-4.264,9.193-6.954,11.926c-2.69,2.734-4.501,5.924-12.618,7.432
		c5.031-2.585,15.497-12.447,16.905-20.899c0.671-0.268,4.093,0,5.501-2.616c1.409-2.616,3.117-6.104,2.364-8.989
		c0,0-1.551-2.161-3.478-0.177C128.628,43.836,129.548,42.779,130.468,42.779"/>
	<path fill="#555555" d="M131.387,42.779c0,0,1.231-14.118-1.182-20.674c-2.412-6.557-6.797-10.224-12.028-12.773
		c-3.108-1.116-6.185-2.204-7.155-2.579c0,0,7.738,2.802,12.12,8.08c4.383,5.277,6.231,24.464,5.486,29.003
		c0.581-0.661,1.267-1.018,1.4-1.057C130.162,42.74,131.387,42.779,131.387,42.779z"/>
	<path fill="#20A89A" d="M70.1,53.34"/>
</g>
<g id="reloj">
	<g id="circulo">
		<path fill="#333333" stroke="#333333" stroke-miterlimit="10" d="M49,29.5c-20.709,0-37.5,16.791-37.5,37.5s16.791,37.5,37.5,37.5
			S86.5,87.709,86.5,67S69.709,29.5,49,29.5z"/>
		<path fill="#FFFFFF" stroke="#333333" stroke-miterlimit="10" d="M79.521,69.5h3.197C81.479,86.5,68.5,99.359,51.5,100.597V97.4
			c0-1.5-1.044-2.731-2.544-2.731c-1.413,0-2.456,1.114-2.456,2.731v3.197C29.5,99.359,16.521,86.5,15.283,69.5h3.197
			c1.5,0,2.731-1.044,2.731-2.544c0-1.456-1.107-2.456-2.731-2.456h-3.197C16.521,47.5,29.5,34.641,46.5,33.403V36.6
			c0,1.5,1.044,2.731,2.544,2.731c1.413,0,2.456-1.114,2.456-2.731v-3.197C68.5,34.641,81.479,47.5,82.717,64.5h-3.197
			c-1.5,0-2.731,1.044-2.731,2.544C76.79,68.5,77.897,69.5,79.521,69.5z"/>
	</g>
	<g id="Capa_2">
		<path fill="#333333" stroke="#333333" stroke-miterlimit="10" d="M49,41.606L49,41.606c-1.201,0-2.184,0.983-2.184,2.184v23.483
			c0,1.201,0.983,2.184,2.184,2.184h0c1.201,0,2.184-0.983,2.184-2.184V43.79C51.184,42.589,50.201,41.606,49,41.606z"/>
		<path fill="#333333" stroke="#333333" stroke-miterlimit="10" d="M63.801,55.351L63.801,55.351
			c-0.772-0.92-2.157-1.042-3.078-0.269L49.05,64.877c-0.92,0.772-1.042,2.157-0.269,3.078l0,0c0.772,0.92,2.157,1.042,3.078,0.269
			l11.674-9.796C64.453,57.656,64.574,56.271,63.801,55.351z"/>
		
			<rect x="44.085" y="64.998" transform="matrix(0.9397 0.342 -0.342 0.9397 29.4268 -10.679)" fill="#D32F2F" stroke="#D32F2F" stroke-miterlimit="10" width="1.82" height="26.214"/>
	</g>
	<g id="Capa_3">
		<circle fill="#333333" cx="49" cy="67" r="5.347"/>
		<g id="Capa_4">
		</g>
	</g>
</g>
</svg>
