<?xml version="1.0" encoding="utf-8"?>
<!-- Generator: Adobe Illustrator 19.0.0, SVG Export Plug-In . SVG Version: 6.00 Build 0)  -->
<svg version="1.1" xmlns="http://www.w3.org/2000/svg" xmlns:xlink="http://www.w3.org/1999/xlink" x="0px" y="0px" width="172px"
	 height="142px" viewBox="0 0 172 142" enable-background="new 0 0 172 142" xml:space="preserve">
<g id="Capa_6">
	<path fill="#0088C2" d="M90.861,112.121l2.911-14.395c0,0-4.006-0.443-3.391-6.488c1.426-0.867,6.753-4.106,6.753-4.106l6.58,4.106
		c0,0,1.029,4.978-3.133,6.656c0.446,1.819,3.485,14.228,3.485,14.228l-6.385,19.91L90.861,112.121z"/>
	<path fill="#CCCCCC" d="M79.814,79.872l11.048,32.249l2.911-14.395c0,0-4.258-0.822-3.391-6.488
		c-1.936,1.177-3.756,2.284-3.756,2.284L79.814,79.872"/>
	<path fill="#CCCCCC" d="M114.455,79.729l-10.389,32.392l-3.485-14.228c0,0,3.869-1.746,3.133-6.656
		c1.232,0.768,3.93,2.452,3.93,2.452L114.455,79.729"/>
	<path fill="#D1A574" d="M97.135,87.132l14.65-12.081l-1.329-3.844c0,0-10.301,15.464-26.231,0.346
		c-0.247,0.789-1.263,3.498-1.263,3.498L97.135,87.132z"/>
	<path fill="#FFFFFF" d="M97.135,87.132l10.51,6.558l6.811-13.818c0,0-2.313-3.234-2.67-4.821
		C110.293,76.238,97.135,87.132,97.135,87.132z"/>
	<path fill="#FFFFFF" d="M97.135,87.132L82.962,75.051c0,0-1.467,3.573-2.981,4.678c-0.167,0.143,6.644,13.793,6.644,13.793
		L97.135,87.132z"/>
	<path fill="#666666" d="M71.896,47.399c0,0-0.185-21.904,3.699-25.822c3.884-3.918,6.829-6.661,10.538-7.303
		c0.083-0.915,0.292-3.708,1.007-4.36c0.551,0.858,2.58,2.624,3.716,2.879c-0.279-0.802-0.959-3.612,0.008-5.293
		c1.062,0.568,10.858,4.892,16.593,6.693c5.735,1.8,10.593,6.3,12.578,10.735c1.987,4.435,2.787,14,1.715,22.503
		c-0.744-0.038-2.528,0.399-2.682,0.961c-0.155,0.562-0.522,3.102-2.283,2.547C115.023,50.383,115,49.775,115,47.43
		c0-2.345,0-11.425,0-11.425s-0.482-8.299-16.374-8.396c-15.892-0.097-19.665,5.117-20.421,7.555
		c-0.168,2.438-0.301,12.266-0.301,12.266s0.612,3.99-1.378,3.345c-1.318-0.477-1.579-2.159-1.579-2.159
		S74.824,47.273,71.896,47.399z"/>
	<path fill="#E5B680" d="M77.323,60.588c0,0-6.338,0.767-7.684-9.07c-0.588-4.792,1.64-5.424,3.061-5.138
		c1.42,0.286,1.971-0.045,2.63,2.042c0.658,2.088,2.5,1.425,2.525,0.117c0.025-1.309,0.025-13.542,0.025-13.542
		s1.121-8.703,18.533-8.387c17.412,0.315,18.8,7.757,18.8,8.45s0.003,12.928,0.003,12.928s1.51,4.078,3.528,0.462
		c2.019-3.616,2.263-2.066,2.263-2.066s3.362,0.285,3.696,1.649c0.334,1.365,0.389,2.983,0,4.247
		c-0.389,1.264-1.828,7.939-7.361,8.318c-0.601,1.464-3.126,7.665-6.537,11.211c-1.853,2.225-12.67,14.295-26.896,0.408
		C81.285,70.058,77.323,60.588,77.323,60.588z"/>
	<ellipse fill="#666666" cx="88.348" cy="47.545" rx="2.775" ry="2.712"/>
	<ellipse fill="#666666" cx="105.501" cy="47.545" rx="2.775" ry="2.712"/>
	<path fill="#444444" d="M49.124,136h97.871c0,0-3.901-24.04-6.911-33.235c-2.17-6.253-7.183-10.112-11.122-12.899
		c-3.938-2.788-14.507-9.981-14.507-9.981l-16.774,52.152L79.978,80.354c0,0-14.872,9.042-16.689,10.758
		c-1.818,1.718-8.017,7.61-9.787,13.862C51.731,111.226,49.124,136,49.124,136z"/>
	<path fill="#333333" d="M114.582,79.872c0,0,17.352,11.975,18.856,13.383c1.504,1.407,5.397,5.242,6.537,9.071
		c1.14,3.829,3.284,13.27,3.284,13.27L146.995,136h-12.108c0,0-2.144-18.089-2.585-19.791c-0.442-1.703-1.703-12.766-2.208-13.711
		c0,0-8.539-11.787-16.883-18.743C113.699,82.263,114.582,79.872,114.582,79.872z"/>
	<polygon fill="#AAAAAA" points="113.212,83.741 112.731,83.37 114.455,79.872 	"/>
	<polygon fill="#DDDDDD" points="112.731,83.37 109.452,76.957 111.785,75.051 114.455,79.872 	"/>
	<path fill="#BE905F" d="M109.452,76.957l-1.177-2.579c0,0,2.11-2.111,2.528-2.57c0.006,0.42,0.981,3.242,0.981,3.242
		L109.452,76.957z"/>
	<path fill="#D7AC76" d="M121.006,46.383c0,0,3.484,0.433,3.696,1.649c0.212,1.216,0.598,3.609-0.883,6.952
		c-1.481,3.344-3.971,5.423-6.478,5.613c-0.735,1.734-4.008,8.642-6.537,11.211c-2.528,2.57-4.231,5.569-11.862,6.986
		c4.729-2.43,14.568-11.7,15.892-19.646c0.631-0.252,3.847,0,5.171-2.459c1.325-2.459,2.93-5.738,2.223-8.45
		c0,0-1.458-2.031-3.269-0.166C119.277,47.377,120.142,46.383,121.006,46.383"/>
	<path fill="#555555" d="M121.87,46.383c0,0,1.158-13.271-1.111-19.434c-2.267-6.164-6.389-9.611-11.307-12.007
		c-2.922-1.049-5.814-2.071-6.726-2.424c0,0,7.274,2.634,11.393,7.595c4.12,4.96,5.858,22.997,5.157,27.264
		c0.546-0.621,1.191-0.957,1.316-0.994C120.719,46.347,121.87,46.383,121.87,46.383z"/>
	<path fill="#20A89A" d="M64.259,56.311"/>
</g>
<g id="reloj">
	<g id="circulo">
		<path fill="#333333" stroke="#333333" stroke-miterlimit="10" d="M51.908,46.953c-14.583,0-26.408,11.825-26.408,26.408
			s11.825,26.408,26.408,26.408s26.408-11.825,26.408-26.408S66.491,46.953,51.908,46.953z"/>
		<path fill="#FFFFFF" stroke="#333333" stroke-miterlimit="10" d="M73.401,75.5h2.251C74.78,86.5,65.5,96.149,54.5,97.02v-2.251
			c0-1.056-1.474-1.923-2.531-1.923c-0.995,0-2.469,0.785-2.469,1.923v2.251c-11-0.872-20.464-10.52-21.336-21.52h2.251
			c1.056,0,1.923-0.974,1.923-2.031c0-1.026-0.779-1.969-1.923-1.969h-2.251C29.036,59.5,38.5,50.573,49.5,49.702v2.251
			c0,1.056,1.474,1.923,2.531,1.923c0.995,0,2.469-0.785,2.469-1.923v-2.251c11,0.872,20.28,9.798,21.152,21.798h-2.251
			c-1.056,0-1.923,0.974-1.923,2.031C71.478,74.556,72.257,75.5,73.401,75.5z"/>
	</g>
	<g id="Capa_2">
		<path fill="#333333" stroke="#333333" stroke-miterlimit="10" d="M51.908,55.478L51.908,55.478c-0.846,0-1.538,0.692-1.538,1.538
			v16.537c0,0.846,0.692,1.538,1.538,1.538h0c0.846,0,1.538-0.692,1.538-1.538V57.016C53.446,56.17,52.754,55.478,51.908,55.478z"/>
		<path fill="#333333" stroke="#333333" stroke-miterlimit="10" d="M62.331,65.157L62.331,65.157
			c-0.544-0.648-1.519-0.733-2.167-0.19l-8.221,6.898c-0.648,0.544-0.733,1.519-0.19,2.167l0,0c0.544,0.648,1.519,0.733,2.167,0.19
			l8.221-6.898C62.79,66.781,62.875,65.806,62.331,65.157z"/>
		
			<rect x="48.447" y="71.951" transform="matrix(0.9397 0.342 -0.342 0.9397 30.7258 -11.8931)" fill="#D32F2F" stroke="#D32F2F" stroke-miterlimit="10" width="1.282" height="18.46"/>
	</g>
	<g id="Capa_3">
		<circle fill="#333333" cx="51.908" cy="73.361" r="3.765"/>
		<g id="Capa_4">
		</g>
	</g>
</g>
</svg>
