<?xml version="1.0" encoding="utf-8"?>
<!-- Generator: Adobe Illustrator 19.0.0, SVG Export Plug-In . SVG Version: 6.00 Build 0)  -->
<svg version="1.1" xmlns="http://www.w3.org/2000/svg" xmlns:xlink="http://www.w3.org/1999/xlink" x="0px" y="0px" width="142px"
	 height="142px" viewBox="0 0 142 142" style="enable-background:new 0 0 142 142;" xml:space="preserve">
<style type="text/css">
	.st0{fill:#0088C2;}
	.st1{fill:#CCCCCC;}
	.st2{fill:#D1A574;}
	.st3{fill:#FFFFFF;}
	.st4{fill:#666666;}
	.st5{fill:#E5B680;}
	.st6{fill:#444444;}
	.st7{fill:#333333;}
	.st8{fill:#AAAAAA;}
	.st9{fill:#DDDDDD;}
	.st10{fill:#BE905F;}
	.st11{fill:#D7AC76;}
	.st12{fill:#555555;}
	.st13{fill:#20A89A;}
</style>
<g id="color">
	<path class="st0" d="M64.4,114.7l3.1-15.3c0,0-4.3-0.5-3.6-6.9c1.5-0.9,7.2-4.4,7.2-4.4l7,4.4c0,0,1.1,5.3-3.3,7.1
		c0.5,1.9,3.7,15.1,3.7,15.1l-6.8,21.2L64.4,114.7z"/>
	<path class="st1" d="M52.6,80.4l11.8,34.3l3.1-15.3c0,0-4.5-0.9-3.6-6.9c-2.1,1.3-4,2.4-4,2.4L52.6,80.4"/>
	<path class="st1" d="M89.5,80.3l-11.1,34.5l-3.7-15.1c0,0,4.1-1.9,3.3-7.1c1.3,0.8,4.2,2.6,4.2,2.6L89.5,80.3"/>
	<path class="st2" d="M71.1,88.1l15.6-12.9l-1.4-4.1c0,0-11,16.5-27.9,0.4c-0.3,0.8-1.3,3.7-1.3,3.7L71.1,88.1z"/>
	<path class="st3" d="M71.1,88.1l11.2,7l7.2-14.7c0,0-2.5-3.4-2.8-5.1C85.1,76.5,71.1,88.1,71.1,88.1z"/>
	<path class="st3" d="M71.1,88.1L56,75.3c0,0-1.6,3.8-3.2,5c-0.2,0.2,7.1,14.7,7.1,14.7L71.1,88.1z"/>
	<path class="st4" d="M44.2,45.9c0,0-0.2-23.3,3.9-27.5c4.1-4.2,7.3-7.1,11.2-7.8c0.1-1,0.3-3.9,1.1-4.6c0.6,0.9,2.7,2.8,4,3.1
		c-0.3-0.9-1-3.8,0-5.6C65.5,4,76,8.6,82.1,10.5c6.1,1.9,11.3,6.7,13.4,11.4c2.1,4.7,3,14.9,1.8,23.9c-0.8,0-2.7,0.4-2.9,1
		c-0.2,0.6-0.6,3.3-2.5,2.7C90.1,49,90,48.4,90,45.9c0-2.5,0-12.2,0-12.2s-0.5-8.8-17.4-8.9c-16.9-0.1-20.9,5.4-21.7,8
		c-0.2,2.6-0.3,13-0.3,13s0.7,4.2-1.5,3.6c-1.4-0.5-1.7-2.3-1.7-2.3S47.3,45.7,44.2,45.9z"/>
	<path class="st5" d="M50,59.9c0,0-6.7,0.8-8.2-9.6c-0.6-5.1,1.7-5.8,3.3-5.5c1.5,0.3,2.1,0,2.8,2.2c0.7,2.2,2.7,1.5,2.7,0.1
		c0-1.4,0-14.4,0-14.4s1.2-9.3,19.7-8.9c18.5,0.3,20,8.3,20,9c0,0.7,0,13.8,0,13.8s1.6,4.3,3.8,0.5c2.1-3.8,2.4-2.2,2.4-2.2
		s3.6,0.3,3.9,1.8c0.4,1.5,0.4,3.2,0,4.5c-0.4,1.3-1.9,8.4-7.8,8.8c-0.6,1.6-3.3,8.2-7,11.9c-2,2.4-13.5,15.2-28.6,0.4
		C54.2,70,50,59.9,50,59.9z"/>
	<ellipse class="st4" cx="61.7" cy="46" rx="3" ry="2.9"/>
	<ellipse class="st4" cx="80" cy="46" rx="3" ry="2.9"/>
	<path class="st6" d="M20,140h104.1c0,0-4.1-25.5-7.4-35.3C114.5,98,109.1,94,104.9,91c-4.2-3-15.4-10.6-15.4-10.6l-17.8,55.5
		l-18.8-55c0,0-15.8,9.6-17.8,11.4c-1.9,1.8-8.5,8-10.4,14.7C22.8,113.7,20,140,20,140z"/>
</g>
<g id="sombra">
	<path class="st7" d="M89.6,80.4c0,0,18.5,12.7,20.1,14.2c1.6,1.5,5.7,5.6,7,9.6c1.2,4.1,3.5,14.1,3.5,14.1l4,21.7h-12.9
		c0,0-2.3-19.2-2.8-21c-0.5-1.8-1.8-13.6-2.3-14.6c0,0-9.1-12.5-18-19.9C88.7,82.9,89.6,80.4,89.6,80.4z"/>
	<polygon class="st8" points="88.2,84.5 87.7,84.1 89.5,80.4 	"/>
	<polygon class="st9" points="87.7,84.1 84.2,77.3 86.7,75.3 89.5,80.4 	"/>
	<path class="st10" d="M84.2,77.3l-1.3-2.7c0,0,2.2-2.2,2.7-2.7c0,0.4,1,3.4,1,3.4L84.2,77.3z"/>
	<path class="st11" d="M96.5,44.8c0,0,3.7,0.5,3.9,1.8c0.2,1.3,0.6,3.8-0.9,7.4c-1.6,3.6-4.2,5.8-6.9,6c-0.8,1.8-4.3,9.2-7,11.9
		c-2.7,2.7-4.5,5.9-12.6,7.4c5-2.6,15.5-12.4,16.9-20.9c0.7-0.3,4.1,0,5.5-2.6c1.4-2.6,3.1-6.1,2.4-9c0,0-1.6-2.2-3.5-0.2
		C94.6,45.8,95.5,44.8,96.5,44.8"/>
	<path class="st12" d="M97.4,44.8c0,0,1.2-14.1-1.2-20.7c-2.4-6.6-6.8-10.2-12-12.8C81.1,10.2,78,9.1,77,8.8c0,0,7.7,2.8,12.1,8.1
		c4.4,5.3,6.2,24.5,5.5,29c0.6-0.7,1.3-1,1.4-1.1C96.2,44.7,97.4,44.8,97.4,44.8z"/>
</g>
<g id="agregar">
	<path class="st13" d="M36.1,55.3"/>
</g>
</svg>
