<?xml version="1.0" encoding="utf-8"?>
<!-- Generator: Adobe Illustrator 19.0.0, SVG Export Plug-In . SVG Version: 6.00 Build 0)  -->
<svg version="1.1" id="Capa_2" xmlns="http://www.w3.org/2000/svg" xmlns:xlink="http://www.w3.org/1999/xlink" x="0px" y="0px"
	 width="48px" height="48px" viewBox="0 0 48 48" style="enable-background:new 0 0 48 48;" xml:space="preserve">
<style type="text/css">
	.st0{fill:#333333;stroke:#333333;stroke-miterlimit:10;}
	.st1{fill:#FFFFFF;stroke:#333333;stroke-miterlimit:10;}
	.st2{fill:#D32F2F;stroke:#D32F2F;stroke-miterlimit:10;}
	.st3{fill:#333333;}
</style>
<g id="XMLID_7_">
	<path id="XMLID_16_" class="st0" d="M23.9,3.7C12.5,3.7,3.3,13,3.3,24.4S12.5,45,23.9,45s20.7-9.2,20.7-20.7S35.3,3.7,23.9,3.7z"/>
	<path id="XMLID_5_" class="st1" d="M40.7,25.5h1.8c-0.7,9-8,16.7-17,17.4v-1.8c0-0.8-0.7-1.5-1.5-1.5c-0.8,0-1.5,0.6-1.5,1.5v1.8
		c-9-0.7-16.5-8.4-17.2-17.4h1.8c0.8,0,1.5-0.2,1.5-1c0-0.8-0.6-1-1.5-1H5.3c0.7-10,8.2-17,17.2-17.6v1.8c0,0.8,0.7,1.5,1.5,1.5
		c0.8,0,1.5-0.6,1.5-1.5V5.9c9,0.7,16.3,7.6,17,17.6h-1.8c-0.8,0-1.5,0.2-1.5,1C39.2,25.3,39.8,25.5,40.7,25.5z"/>
	<path id="XMLID_4_" class="st0" d="M24.2,10.4h-0.5c-0.5,0-1,0.4-1,1v13.4c0,0.5,0.4,1,1,1h0.5c0.5,0,1-0.4,1-1V11.3
		C25.2,10.8,24.8,10.4,24.2,10.4z"/>
	<path id="XMLID_3_" class="st0" d="M32.3,18.1L32,17.8c-0.3-0.4-1-0.5-1.4-0.1l-6.8,5.7c-0.4,0.3-0.5,1-0.1,1.4l0.3,0.4
		c0.3,0.4,1,0.5,1.4,0.1l6.8-5.7C32.6,19.1,32.6,18.5,32.3,18.1z"/>
	
		<rect id="XMLID_2_" x="21.3" y="23.3" transform="matrix(0.9397 0.342 -0.342 0.9397 11.7384 -5.6159)" class="st2" width="1" height="14.4"/>
	<circle id="XMLID_1_" class="st3" cx="23.9" cy="24.4" r="2.9"/>
</g>
</svg>
