<?xml version="1.0" encoding="utf-8"?>
<!-- Generator: Adobe Illustrator 19.0.0, SVG Export Plug-In . SVG Version: 6.00 Build 0)  -->
<svg version="1.1" xmlns="http://www.w3.org/2000/svg" xmlns:xlink="http://www.w3.org/1999/xlink" x="0px" y="0px" width="172px"
	 height="142px" viewBox="0 0 172 142" enable-background="new 0 0 172 142" xml:space="preserve">
<g id="color_monitor" display="none">
	<polyline display="inline" fill="#95A5A6" points="11,19 162,19 162,100 11,100 11,19 	"/>
</g>
<g id="sombra" display="none">
	<polygon display="inline" fill="#7F8C8D" points="162,19 162,100 52.352,100 95.701,19 	"/>
</g>
<g id="Capa_1" display="none">
	
		<rect x="11" y="19" display="inline" fill="none" stroke="#333333" stroke-width="6" stroke-linejoin="round" stroke-miterlimit="10" width="151" height="81"/>
	
		<rect x="52" y="124" display="inline" fill="#333333" stroke="#333333" stroke-width="2" stroke-linecap="round" stroke-linejoin="round" stroke-miterlimit="10" width="69" height="7"/>
	
		<rect x="78" y="100" display="inline" fill="#333333" stroke="#333333" stroke-width="2" stroke-linecap="round" stroke-linejoin="round" stroke-miterlimit="10" width="19" height="24"/>
</g>
<g id="pote01" display="none">
	
		<ellipse display="inline" fill="#FFFFFF" stroke="#000000" stroke-miterlimit="10" cx="76.333" cy="31.333" rx="44.167" ry="17.667"/>
	
		<ellipse display="inline" fill="#FFFFFF" stroke="#000000" stroke-miterlimit="10" cx="76.333" cy="46.333" rx="44.167" ry="17.667"/>
	
		<ellipse display="inline" fill="#FFFFFF" stroke="#000000" stroke-miterlimit="10" cx="76.333" cy="61.333" rx="44.167" ry="17.667"/>
	
		<ellipse display="inline" fill="#FFFFFF" stroke="#000000" stroke-miterlimit="10" cx="76.333" cy="77.333" rx="44.167" ry="17.667"/>
	
		<ellipse display="inline" fill="#FFFFFF" stroke="#000000" stroke-miterlimit="10" cx="76.333" cy="94.333" rx="44.167" ry="17.667"/>
	
		<ellipse display="inline" fill="#FFFFFF" stroke="#000000" stroke-miterlimit="10" cx="76.333" cy="110.333" rx="44.167" ry="17.667"/>
	<path display="inline" fill="#FFFFFF" stroke="#000000" stroke-miterlimit="10" d="M32.5,104"/>
	<line display="inline" fill="#FFFFFF" stroke="#000000" stroke-miterlimit="10" x1="120.5" y1="31" x2="120.5" y2="110"/>
	<line display="inline" fill="#FFFFFF" stroke="#000000" stroke-miterlimit="10" x1="32.5" y1="110" x2="32.5" y2="31"/>
</g>
<g id="Capa_5">
	<polygon fill="#222222" stroke="#F9F9F9" stroke-width="3" stroke-linecap="round" stroke-miterlimit="10" points="8.5,42.876 
		25.302,14.5 133.364,14.5 150.167,43.25 	"/>
	<path fill="#222222" stroke="#F9F9F9" stroke-width="3" stroke-miterlimit="10" d="M10.667,41H148c1.657,0,3,1.343,3,3v20
		c0,1.657-1.343,3-3,3H10.667c-1.657,0-3-1.343-3-3V44C7.667,42.343,9.01,41,10.667,41z"/>
	<path fill="#222222" stroke="#F9F9F9" stroke-width="3" stroke-miterlimit="10" d="M10.667,67H148c1.657,0,3,1.343,3,3v20
		c0,1.657-1.343,3-3,3H10.667c-1.657,0-3-1.343-3-3V70C7.667,68.343,9.01,67,10.667,67z"/>
	<path fill="#222222" stroke="#F9F9F9" stroke-width="3" stroke-miterlimit="10" d="M10.667,93H148c1.657,0,3,1.343,3,3v20
		c0,1.657-1.343,3-3,3H10.667c-1.657,0-3-1.343-3-3V96C7.667,94.343,9.01,93,10.667,93z"/>
	<circle fill="#F9F9F9" stroke="#F9F9F9" stroke-linecap="round" stroke-miterlimit="10" cx="19.923" cy="54.006" r="3.423"/>
	<circle fill="#F9F9F9" stroke="#F9F9F9" stroke-linecap="round" stroke-miterlimit="10" cx="20.923" cy="80.113" r="3.423"/>
	<circle fill="#F9F9F9" stroke="#F9F9F9" stroke-linecap="round" stroke-miterlimit="10" cx="20.923" cy="106.327" r="3.423"/>
	<path fill="#F9F9F9" stroke="#F9F9F9" stroke-linecap="round" stroke-miterlimit="10" d="M32.554,50.583h26.19
		c1.882,0,3.423,1.54,3.423,3.423v0c0,1.882-1.54,3.423-3.423,3.423h-26.19c-1.882,0-3.423-1.54-3.423-3.423v0
		C29.131,52.124,30.671,50.583,32.554,50.583z"/>
	<path fill="#F9F9F9" stroke="#F9F9F9" stroke-linecap="round" stroke-miterlimit="10" d="M33.554,76.542h26.19
		c1.882,0,3.423,1.54,3.423,3.423v0c0,1.882-1.54,3.423-3.423,3.423h-26.19c-1.882,0-3.423-1.54-3.423-3.423v0
		C30.131,78.082,31.671,76.542,33.554,76.542z"/>
	<path fill="#F9F9F9" stroke="#F9F9F9" stroke-linecap="round" stroke-miterlimit="10" d="M33.554,102.756h26.19
		c1.882,0,3.423,1.54,3.423,3.423v0c0,1.882-1.54,3.423-3.423,3.423h-26.19c-1.882,0-3.423-1.54-3.423-3.423v0
		C30.131,104.296,31.671,102.756,33.554,102.756z"/>
</g>
<g id="Capa_6">
	<path fill="#DDDDDD" stroke="#222222" stroke-width="2" stroke-miterlimit="10" d="M133.751,53L133.751,53
		c0,8.834,25.412,22.486,33.249,22.486l0,0c0,13.684-6.497,30.478-14.658,40.609c-5.306,6.588-11.703,11.858-18.589,11.858h-0.004
		c-6.886,0-13.283-5.27-18.589-11.858c-8.161-10.131-14.658-26.926-14.658-40.609l0,0C108.339,75.486,133.751,61.834,133.751,53z"/>
	<path fill="#F9F9F9" stroke="#222222" stroke-width="2" stroke-miterlimit="10" d="M111.023,90.466
		c1.875,6.994,5.249,13.9,9.141,18.731c3.878,4.814,8.553,8.666,13.585,8.666h0.003l-0.001-27.386L111.023,90.466z"/>
	<path fill="#F3A744" stroke="#222222" stroke-width="2" stroke-miterlimit="10" d="M156.478,90.466
		c-1.875,6.994-5.249,13.9-9.141,18.731c-3.878,4.814-8.553,8.666-13.585,8.666l-0.001-27.386L156.478,90.466"/>
	<path fill="#F9F9F9" stroke="#222222" stroke-width="2" stroke-miterlimit="10" d="M133.751,63.087L133.751,63.087
		c0,6.456,18.571,16.433,24.299,16.433l0,0c0,3.474-0.573,7.223-1.571,10.946l-22.728,0.011V63.087"/>
	<path fill="#F3A744" stroke="#222222" stroke-width="2" stroke-miterlimit="10" d="M133.751,63.087
		c0,6.456-18.571,16.433-24.299,16.433l0,0c0,3.474,0.573,7.223,1.571,10.946l22.728,0.011V63.087z"/>
</g>
</svg>
