<?xml version="1.0" encoding="utf-8"?>
<!-- Generator: Adobe Illustrator 19.0.0, SVG Export Plug-In . SVG Version: 6.00 Build 0)  -->
<svg version="1.1" xmlns="http://www.w3.org/2000/svg" xmlns:xlink="http://www.w3.org/1999/xlink" x="0px" y="0px" width="142px"
	 height="142px" viewBox="0 0 142 142" style="enable-background:new 0 0 142 142;" xml:space="preserve">
<style type="text/css">
	.st0{fill:#ECCF57;}
	.st1{fill:#CCCCCC;}
	.st2{fill:#DE9F4C;}
	.st3{fill:#242834;}
</style>
<g id="Capa_2">
</g>
<g id="sombra">
</g>
<g id="Capa_4">
	<g id="XMLID_1_">
		<g id="XMLID_2_">
			<g id="XMLID_3_">
				<path id="XMLID_8_" class="st0" d="M78,124.6H9.5c-2.8,0-5-2.2-5-5V67c0-0.6,0.4-1,1-1H82c0.6,0,1,0.4,1,1v52.6
					C83,122.4,80.8,124.6,78,124.6z"/>
			</g>
		</g>
		<path id="XMLID_13_" class="st1" d="M137,41.8v25.4h-12V46.2c0-8.3-6.7-14.9-14.9-14.9H92.2c-8.3,0-14.9,6.7-14.9,14.9v20.9h-12
			V41.8c0-12.4,10-22.4,22.4-22.4h26.9C127,19.3,137,29.4,137,41.8z"/>
		<path id="XMLID_9_" class="st2" d="M78,124.6H43.8V66H82c0.6,0,1,0.4,1,1v52.6C83,122.4,80.8,124.6,78,124.6z"/>
		<g id="XMLID_11_">
			<path id="XMLID_33_" class="st3" d="M47.5,96.5l2,13.5H38l1.9-13.4c-3.7-1.5-6.3-4.8-6.3-9c0-5.1,3.9-9.2,8.9-9.8
				c0.4,0,0.8,0,1.1,0c0.4,0,0.7,0.1,1.1,0.1c5,0.5,8.9,4.5,8.9,9.7C53.6,91.7,51.1,95,47.5,96.5z"/>
		</g>
	</g>
</g>
</svg>
