<svg xmlns="http://www.w3.org/2000/svg" viewBox="0 0 42.3 6.53"><defs><style>.cls-1{fill:#ed7d31;}.cls-2{fill:#aaa;}.cls-3{fill:#333;}.cls-3,.cls-4{stroke:#ed7d31;stroke-miterlimit:10;stroke-width:0.25px;}.cls-4{fill:#999;stroke-linecap:square;}</style></defs><title>Recurso 2</title><g id="Capa_2" data-name="Capa 2"><g id="Capa_5" data-name="Capa 5"><path id="_Trazado_compuesto_" data-name="&lt;Trazado compuesto&gt;" class="cls-1" d="M10.13,4.72H7.82l-.1,0-.08-.05a.25.25,0,0,1-.05-.08.26.26,0,0,1,0-.1V1.93h.51V4.22h2.06Z"/><path id="_Trazado_compuesto_2" data-name="&lt;Trazado compuesto&gt;" class="cls-2" d="M12.74,4a.77.77,0,0,1,0,.23.68.68,0,0,1-.09.18.6.6,0,0,1-.13.13l-.15.09-.16.05-.15,0h-.91a.81.81,0,0,1-.23,0,.67.67,0,0,1-.41-.34A.71.71,0,0,1,10.4,4V3.33A.7.7,0,0,1,10.48,3a.67.67,0,0,1,.41-.34.81.81,0,0,1,.23,0H12a.72.72,0,0,1,.33.07.66.66,0,0,1,.22.18.7.7,0,0,1,.12.23.8.8,0,0,1,0,.23Zm-.51-.68a.21.21,0,0,0-.05-.16A.21.21,0,0,0,12,3.12h-.91a.21.21,0,0,0-.15.05.2.2,0,0,0-.05.15V4a.21.21,0,0,0,.05.15.21.21,0,0,0,.15.05H12a.2.2,0,0,0,.15-.05A.21.21,0,0,0,12.23,4Z"/><path id="_Trazado_compuesto_3" data-name="&lt;Trazado compuesto&gt;" class="cls-2" d="M15.34,4a.78.78,0,0,1,0,.23.68.68,0,0,1-.12.23.67.67,0,0,1-.22.17.69.69,0,0,1-.32.07h-.91a.78.78,0,0,1-.23,0,.68.68,0,0,1-.23-.12.67.67,0,0,1-.17-.22A.69.69,0,0,1,13,4a.79.79,0,0,1,0-.23.68.68,0,0,1,.12-.23.67.67,0,0,1,.22-.17.69.69,0,0,1,.32-.07h.91v.48h-.91a.2.2,0,0,0-.16.06.23.23,0,0,0-.06.16.19.19,0,0,0,.07.15.23.23,0,0,0,.15.06h.91a.2.2,0,0,0,.16-.06A.22.22,0,0,0,14.86,4V3.31a.21.21,0,0,0-.06-.16.22.22,0,0,0-.15-.06H13.53V2.62h1.11a.78.78,0,0,1,.23,0,.68.68,0,0,1,.23.12.67.67,0,0,1,.17.22.69.69,0,0,1,.07.32Z"/><path id="_Trazado_compuesto_4" data-name="&lt;Trazado compuesto&gt;" class="cls-2" d="M18.08,4a.77.77,0,0,1,0,.23.68.68,0,0,1-.09.18.6.6,0,0,1-.13.13l-.15.09-.16.05-.15,0h-.91a.76.76,0,0,1-.23,0A.67.67,0,0,1,16,4.6a.61.61,0,0,1-.13-.13.74.74,0,0,1-.09-.15.77.77,0,0,1-.05-.16.75.75,0,0,1,0-.15V3.33A.7.7,0,0,1,15.82,3a.67.67,0,0,1,.41-.34.81.81,0,0,1,.23,0h.91v.51h-.91a.21.21,0,0,0-.15.05.2.2,0,0,0-.05.15V4a.21.21,0,0,0,.05.16.2.2,0,0,0,.15.05h.91a.2.2,0,0,0,.15-.05A.21.21,0,0,0,17.57,4V1.73h.51Z"/><path id="_Trazado_compuesto_5" data-name="&lt;Trazado compuesto&gt;" class="cls-2" d="M20.6,4a.77.77,0,0,1,0,.23.68.68,0,0,1-.09.18.6.6,0,0,1-.13.13l-.15.09L20,4.71l-.15,0H18.52V4.22h1.37A.21.21,0,0,0,20,4.16.21.21,0,0,0,20.09,4a.19.19,0,0,0-.2-.2H19.1a.63.63,0,0,1-.28-.06.58.58,0,0,1-.19-.15.56.56,0,0,1-.11-.19.63.63,0,0,1,0-.19.61.61,0,0,1,.06-.29.57.57,0,0,1,.15-.19.6.6,0,0,1,.2-.1l.2,0h1.24v.51H19l0,0v0a.27.27,0,0,0,0,0,.12.12,0,0,0,0,0l0,0h.85a.72.72,0,0,1,.33.07.66.66,0,0,1,.22.18.7.7,0,0,1,.12.23A.8.8,0,0,1,20.6,4Z"/><path id="_Trazado_compuesto_6" data-name="&lt;Trazado compuesto&gt;" class="cls-1" d="M25,3.9a.89.89,0,0,1,0,.27.81.81,0,0,1-.1.21.67.67,0,0,1-.15.16l-.17.11-.18.06-.17,0h-2V4.22h2a.3.3,0,0,0,.23-.09.32.32,0,0,0,.08-.23.37.37,0,0,0,0-.13.3.3,0,0,0-.06-.1.27.27,0,0,0-.1-.07l-.13,0H23a.9.9,0,0,1-.26,0,.79.79,0,0,1-.26-.14.77.77,0,0,1-.2-.26.84.84,0,0,1-.08-.39.83.83,0,0,1,.08-.38.78.78,0,0,1,.47-.4.9.9,0,0,1,.26,0h1.72v.51H23a.29.29,0,0,0-.22.09.33.33,0,0,0-.08.23.32.32,0,0,0,.08.23.3.3,0,0,0,.22.08h1.17l.17,0,.18.06.17.11a.73.73,0,0,1,.15.16.77.77,0,0,1,.1.21A.9.9,0,0,1,25,3.9Z"/><path id="_Trazado_compuesto_7" data-name="&lt;Trazado compuesto&gt;" class="cls-2" d="M27.39,4.72H26a.81.81,0,0,1-.23,0,.67.67,0,0,1-.41-.34A.71.71,0,0,1,25.31,4V3.33a.75.75,0,0,1,0-.15A.78.78,0,0,1,25.38,3a.74.74,0,0,1,.09-.15.6.6,0,0,1,.13-.13.69.69,0,0,1,.18-.09.76.76,0,0,1,.23,0h1.37v.51H26a.21.21,0,0,0-.15.05.21.21,0,0,0-.05.16V4a.21.21,0,0,0,.05.15.21.21,0,0,0,.15.05h1.37Z"/><path id="_Trazado_compuesto_8" data-name="&lt;Trazado compuesto&gt;" class="cls-2" d="M28.32,4.72h-.51v-3h.51Zm1.83,0h-.51V3.33a.21.21,0,0,0-.05-.15.2.2,0,0,0-.15-.05h-.91V2.62h.91l.15,0,.16.05.15.09a.6.6,0,0,1,.13.13.69.69,0,0,1,.09.18.76.76,0,0,1,0,.23Z"/><path id="_Trazado_compuesto_9" data-name="&lt;Trazado compuesto&gt;" class="cls-2" d="M32.88,3.31a.78.78,0,0,1,0,.23.68.68,0,0,1-.12.23.67.67,0,0,1-.22.17.69.69,0,0,1-.32.07h-.91V3.53h.91a.2.2,0,0,0,.16-.06.23.23,0,0,0,.06-.16.2.2,0,0,0-.06-.16.22.22,0,0,0-.15-.06h-.91a.2.2,0,0,0-.16.06.23.23,0,0,0-.06.16V4a.2.2,0,0,0,.06.16.23.23,0,0,0,.16.06h.91v.48h-.91a.78.78,0,0,1-.23,0,.68.68,0,0,1-.23-.12.67.67,0,0,1-.17-.22A.69.69,0,0,1,30.57,4V3.31a.78.78,0,0,1,0-.23.68.68,0,0,1,.12-.23.67.67,0,0,1,.22-.17.69.69,0,0,1,.32-.07h.91a.78.78,0,0,1,.23,0,.68.68,0,0,1,.23.12.67.67,0,0,1,.17.22A.69.69,0,0,1,32.88,3.31Z"/><path id="_Trazado_compuesto_10" data-name="&lt;Trazado compuesto&gt;" class="cls-2" d="M35.53,4a.77.77,0,0,1,0,.23.68.68,0,0,1-.09.18.6.6,0,0,1-.13.13l-.15.09L35,4.71l-.15,0H33.9a.76.76,0,0,1-.23,0,.67.67,0,0,1-.18-.09.61.61,0,0,1-.13-.13.74.74,0,0,1-.09-.15.77.77,0,0,1-.05-.16.75.75,0,0,1,0-.15V3.33A.7.7,0,0,1,33.26,3a.67.67,0,0,1,.41-.34.81.81,0,0,1,.23,0h.91v.51h-.91a.21.21,0,0,0-.15.05.2.2,0,0,0-.05.15V4a.21.21,0,0,0,.05.16.2.2,0,0,0,.15.05h.91A.2.2,0,0,0,35,4.16.21.21,0,0,0,35,4V1.73h.51Z"/><path id="_Trazado_compuesto_11" data-name="&lt;Trazado compuesto&gt;" class="cls-2" d="M38.31,4.47a.26.26,0,0,1,0,.1.25.25,0,0,1-.05.08l-.08.05-.1,0H36.91l-.2,0-.21-.07-.2-.12a.77.77,0,0,1-.17-.18A.91.91,0,0,1,36,4.09a1,1,0,0,1,0-.31V2.62h.51V3.79a.44.44,0,0,0,0,.18.41.41,0,0,0,.09.14.4.4,0,0,0,.14.09.47.47,0,0,0,.17,0h.89V2.62h.51Z"/><path id="_Trazado_compuesto_12" data-name="&lt;Trazado compuesto&gt;" class="cls-2" d="M39.71,4.72h-.23a.81.81,0,0,1-.23,0A.69.69,0,0,1,39,4.56a.67.67,0,0,1-.18-.22A.72.72,0,0,1,38.77,4V1.73h.51V4a.2.2,0,0,0,.06.15.2.2,0,0,0,.15.06h.23Z"/><path id="_Trazado_compuesto_13" data-name="&lt;Trazado compuesto&gt;" class="cls-2" d="M42.3,3.31a.78.78,0,0,1,0,.23.68.68,0,0,1-.12.23.67.67,0,0,1-.22.17A.69.69,0,0,1,41.6,4h-.91V3.53h.91a.2.2,0,0,0,.16-.06.23.23,0,0,0,.06-.16.2.2,0,0,0-.06-.16.22.22,0,0,0-.15-.06h-.91a.2.2,0,0,0-.16.06.23.23,0,0,0-.06.16V4a.2.2,0,0,0,.06.16.23.23,0,0,0,.16.06h.91v.48h-.91a.78.78,0,0,1-.23,0,.68.68,0,0,1-.23-.12.67.67,0,0,1-.17-.22A.69.69,0,0,1,40,4V3.31a.78.78,0,0,1,0-.23.68.68,0,0,1,.12-.23.67.67,0,0,1,.22-.17.69.69,0,0,1,.32-.07h.91a.78.78,0,0,1,.23,0,.68.68,0,0,1,.23.12.67.67,0,0,1,.17.22A.69.69,0,0,1,42.3,3.31Z"/><g id="_Grupo_" data-name="&lt;Grupo&gt;"><polygon id="_Trazado_" data-name="&lt;Trazado&gt;" class="cls-3" points="3.75 0.81 1.46 3.11 2.77 4.42 2.12 5.07 0.18 3.12 3.12 0.18 3.75 0.81"/><polyline id="_Trazado_2" data-name="&lt;Trazado&gt;" class="cls-4" points="2.12 3.78 4.44 1.47 6.35 3.41 3.41 6.35 2.78 5.73 5.08 3.43 4.42 2.77 2.12 5.07"/></g></g></g></svg>