<svg xmlns="http://www.w3.org/2000/svg" viewBox="0 0 73.46 12.44"><defs><style>.cls-1{fill:#ed7d31;}.cls-2{fill:#aaa;}.cls-3{fill:#333;}.cls-3,.cls-4{stroke:#ed7d31;stroke-miterlimit:10;stroke-width:0.5px;}.cls-4{fill:#999;stroke-linecap:square;}</style></defs><title>Recurso 1</title><g id="Capa_2" data-name="Capa 2"><g id="Capa_4" data-name="Capa 4"><g id="_Grupo_" data-name="&lt;Grupo&gt;"><path id="_Trazado_compuesto_" data-name="&lt;Trazado compuesto&gt;" class="cls-1" d="M19.28,8.75H15.39a.44.44,0,0,1-.17,0A.41.41,0,0,1,15,8.49a.44.44,0,0,1,0-.17V4h.85V7.9h3.47Z"/><path id="_Trazado_compuesto_2" data-name="&lt;Trazado compuesto&gt;" class="cls-2" d="M23.67,7.56a1.3,1.3,0,0,1-.06.4,1.15,1.15,0,0,1-.15.31,1,1,0,0,1-.21.23,1.25,1.25,0,0,1-.25.15,1.3,1.3,0,0,1-.27.09l-.26,0H20.93a1.37,1.37,0,0,1-.39-.06,1.13,1.13,0,0,1-.69-.58,1.19,1.19,0,0,1-.12-.56V6.4a1.18,1.18,0,0,1,.12-.56,1.13,1.13,0,0,1,.69-.58,1.37,1.37,0,0,1,.39-.06h1.54a1.21,1.21,0,0,1,.56.12,1.11,1.11,0,0,1,.37.3,1.18,1.18,0,0,1,.2.39,1.35,1.35,0,0,1,.06.39Zm-.85-1.15a.35.35,0,0,0-.09-.26.35.35,0,0,0-.26-.09H20.94a.36.36,0,0,0-.26.09.34.34,0,0,0-.09.25V7.56a.35.35,0,0,0,.09.26.35.35,0,0,0,.26.09h1.53a.34.34,0,0,0,.26-.09.35.35,0,0,0,.09-.26Z"/><path id="_Trazado_compuesto_3" data-name="&lt;Trazado compuesto&gt;" class="cls-2" d="M28,7.58A1.32,1.32,0,0,1,28,8a1.14,1.14,0,0,1-.2.38,1.12,1.12,0,0,1-.36.29,1.16,1.16,0,0,1-.55.12H25.34A1.32,1.32,0,0,1,25,8.69a1.14,1.14,0,0,1-.38-.2,1.12,1.12,0,0,1-.29-.36,1.16,1.16,0,0,1-.12-.55,1.33,1.33,0,0,1,.06-.38,1.14,1.14,0,0,1,.2-.38,1.12,1.12,0,0,1,.36-.29,1.16,1.16,0,0,1,.55-.12h1.54v.81H25.34a.34.34,0,0,0-.27.11.38.38,0,0,0-.1.26.32.32,0,0,0,.11.26.39.39,0,0,0,.26.09h1.53a.34.34,0,0,0,.27-.1.38.38,0,0,0,.1-.26V6.38a.35.35,0,0,0-.1-.27.36.36,0,0,0-.26-.1H25V5.21h1.87a1.32,1.32,0,0,1,.38.06,1.14,1.14,0,0,1,.38.2,1.13,1.13,0,0,1,.29.36,1.16,1.16,0,0,1,.12.55Z"/><path id="_Trazado_compuesto_4" data-name="&lt;Trazado compuesto&gt;" class="cls-2" d="M32.67,7.56a1.3,1.3,0,0,1-.06.4,1.15,1.15,0,0,1-.15.31,1,1,0,0,1-.21.23,1.25,1.25,0,0,1-.25.15,1.3,1.3,0,0,1-.27.09l-.26,0H29.93a1.28,1.28,0,0,1-.39-.06,1.12,1.12,0,0,1-.31-.15A1,1,0,0,1,29,8.33a1.24,1.24,0,0,1-.15-.25,1.3,1.3,0,0,1-.09-.27,1.27,1.27,0,0,1,0-.25V6.4a1.18,1.18,0,0,1,.12-.56,1.13,1.13,0,0,1,.69-.58,1.37,1.37,0,0,1,.39-.06h1.54v.85H29.94a.36.36,0,0,0-.26.09.34.34,0,0,0-.09.25V7.55a.36.36,0,0,0,.09.26.34.34,0,0,0,.25.09h1.54a.34.34,0,0,0,.26-.09.35.35,0,0,0,.09-.26V3.71h.85Z"/><path id="_Trazado_compuesto_5" data-name="&lt;Trazado compuesto&gt;" class="cls-2" d="M36.91,7.56a1.3,1.3,0,0,1-.06.4,1.15,1.15,0,0,1-.15.31,1,1,0,0,1-.21.23,1.25,1.25,0,0,1-.25.15,1.31,1.31,0,0,1-.27.09l-.26,0H33.4V7.9h2.3A.36.36,0,0,0,36,7.81a.35.35,0,0,0,.09-.26.31.31,0,0,0-.34-.34H34.39a1.06,1.06,0,0,1-.48-.1,1,1,0,0,1-.32-.25.94.94,0,0,1-.18-.32,1.06,1.06,0,0,1-.05-.32,1,1,0,0,1,.1-.48,1,1,0,0,1,.26-.32,1,1,0,0,1,.33-.18,1.18,1.18,0,0,1,.34-.05h2.1v.85H34.29l-.06,0a.11.11,0,0,0,0,.05.46.46,0,0,0,0,.05.2.2,0,0,0,0,.08l0,0h1.44a1.21,1.21,0,0,1,.56.12,1.11,1.11,0,0,1,.37.3,1.18,1.18,0,0,1,.2.39A1.34,1.34,0,0,1,36.91,7.56Z"/><path id="_Trazado_compuesto_6" data-name="&lt;Trazado compuesto&gt;" class="cls-1" d="M44.3,7.37a1.5,1.5,0,0,1-.06.45,1.36,1.36,0,0,1-.17.36,1.13,1.13,0,0,1-.25.26,1.51,1.51,0,0,1-.29.18,1.46,1.46,0,0,1-.31.1,1.43,1.43,0,0,1-.29,0H39.64V7.9h3.29a.5.5,0,0,0,.38-.14.54.54,0,0,0,.14-.39.62.62,0,0,0,0-.22.5.5,0,0,0-.1-.17.46.46,0,0,0-.16-.11.57.57,0,0,0-.21,0H41a1.52,1.52,0,0,1-.45-.07,1.34,1.34,0,0,1-.44-.24,1.3,1.3,0,0,1-.34-.43,1.41,1.41,0,0,1-.14-.65,1.4,1.4,0,0,1,.14-.65,1.31,1.31,0,0,1,.79-.67A1.52,1.52,0,0,1,41,4h2.9V4.9H41a.49.49,0,0,0-.38.15.55.55,0,0,0-.14.39.54.54,0,0,0,.14.39A.5.5,0,0,0,41,6h2l.29,0a1.48,1.48,0,0,1,.6.29,1.23,1.23,0,0,1,.24.26,1.3,1.3,0,0,1,.17.35A1.52,1.52,0,0,1,44.3,7.37Z"/><path id="_Trazado_compuesto_7" data-name="&lt;Trazado compuesto&gt;" class="cls-2" d="M48.35,8.75H46a1.37,1.37,0,0,1-.39-.06A1.13,1.13,0,0,1,45,8.11a1.19,1.19,0,0,1-.12-.56V6.4a1.26,1.26,0,0,1,0-.26A1.31,1.31,0,0,1,45,5.88a1.25,1.25,0,0,1,.15-.25,1,1,0,0,1,.23-.21,1.16,1.16,0,0,1,.31-.15A1.29,1.29,0,0,1,46,5.21h2.31v.85H46a.35.35,0,0,0-.25.09.35.35,0,0,0-.09.26V7.56a.35.35,0,0,0,.09.26A.35.35,0,0,0,46,7.9h2.31Z"/><path id="_Trazado_compuesto_8" data-name="&lt;Trazado compuesto&gt;" class="cls-2" d="M49.92,8.75h-.85v-5h.85Zm3.08,0h-.85V6.4a.35.35,0,0,0-.09-.25.34.34,0,0,0-.26-.09H50.26V5.21H51.8l.26,0a1.31,1.31,0,0,1,.27.09,1.24,1.24,0,0,1,.25.15,1,1,0,0,1,.21.23,1.16,1.16,0,0,1,.15.31A1.29,1.29,0,0,1,53,6.4Z"/><path id="_Trazado_compuesto_9" data-name="&lt;Trazado compuesto&gt;" class="cls-2" d="M57.59,6.38a1.32,1.32,0,0,1-.06.38,1.14,1.14,0,0,1-.2.38,1.12,1.12,0,0,1-.36.29,1.16,1.16,0,0,1-.55.12H54.88V6.75h1.54a.34.34,0,0,0,.27-.11.38.38,0,0,0,.1-.26.33.33,0,0,0-.11-.26.37.37,0,0,0-.26-.1H54.88a.34.34,0,0,0-.27.11.38.38,0,0,0-.1.26V7.58a.34.34,0,0,0,.11.27.38.38,0,0,0,.26.1h1.53v.81H54.88a1.32,1.32,0,0,1-.38-.06,1.14,1.14,0,0,1-.38-.2,1.12,1.12,0,0,1-.29-.36,1.16,1.16,0,0,1-.12-.55V6.38A1.32,1.32,0,0,1,53.77,6a1.14,1.14,0,0,1,.2-.38,1.12,1.12,0,0,1,.36-.29,1.16,1.16,0,0,1,.55-.12h1.54a1.32,1.32,0,0,1,.38.06,1.14,1.14,0,0,1,.38.2,1.13,1.13,0,0,1,.29.36A1.16,1.16,0,0,1,57.59,6.38Z"/><path id="_Trazado_compuesto_10" data-name="&lt;Trazado compuesto&gt;" class="cls-2" d="M62.05,7.56A1.3,1.3,0,0,1,62,8a1.15,1.15,0,0,1-.15.31,1,1,0,0,1-.21.23,1.25,1.25,0,0,1-.25.15,1.3,1.3,0,0,1-.27.09l-.26,0H59.32a1.28,1.28,0,0,1-.39-.06,1.12,1.12,0,0,1-.31-.15,1,1,0,0,1-.23-.21,1.24,1.24,0,0,1-.15-.25,1.3,1.3,0,0,1-.09-.27,1.27,1.27,0,0,1,0-.25V6.4a1.18,1.18,0,0,1,.12-.56,1.13,1.13,0,0,1,.69-.58,1.37,1.37,0,0,1,.39-.06h1.54v.85H59.32a.36.36,0,0,0-.26.09A.34.34,0,0,0,59,6.4V7.55a.36.36,0,0,0,.09.26.34.34,0,0,0,.25.09h1.54a.34.34,0,0,0,.26-.09.35.35,0,0,0,.09-.26V3.71h.85Z"/><path id="_Trazado_compuesto_11" data-name="&lt;Trazado compuesto&gt;" class="cls-2" d="M66.74,8.32a.44.44,0,0,1,0,.17.42.42,0,0,1-.39.26H64.39a1.7,1.7,0,0,1-.34,0,1.58,1.58,0,0,1-.35-.12,1.82,1.82,0,0,1-.34-.2,1.29,1.29,0,0,1-.28-.3,1.53,1.53,0,0,1-.2-.4,1.69,1.69,0,0,1-.07-.52v-2h.85v2a.75.75,0,0,0,.06.3.7.7,0,0,0,.16.23.68.68,0,0,0,.23.15.8.8,0,0,0,.29.05h1.49V5.21h.85Z"/><path id="_Trazado_compuesto_12" data-name="&lt;Trazado compuesto&gt;" class="cls-2" d="M69.1,8.75h-.38a1.37,1.37,0,0,1-.39-.06,1.16,1.16,0,0,1-.39-.2,1.12,1.12,0,0,1-.3-.37,1.2,1.2,0,0,1-.12-.56V3.71h.85V7.56a.33.33,0,0,0,.1.25.34.34,0,0,0,.25.09h.38Z"/><path id="_Trazado_compuesto_13" data-name="&lt;Trazado compuesto&gt;" class="cls-2" d="M73.46,6.38a1.32,1.32,0,0,1-.06.38,1.14,1.14,0,0,1-.2.38,1.12,1.12,0,0,1-.36.29,1.16,1.16,0,0,1-.55.12H70.75V6.75h1.54a.34.34,0,0,0,.27-.11.38.38,0,0,0,.1-.26.33.33,0,0,0-.11-.26.37.37,0,0,0-.26-.1H70.75a.34.34,0,0,0-.27.11.38.38,0,0,0-.1.26V7.58a.34.34,0,0,0,.11.27.38.38,0,0,0,.26.1h1.53v.81H70.75a1.32,1.32,0,0,1-.38-.06,1.14,1.14,0,0,1-.38-.2,1.12,1.12,0,0,1-.29-.36,1.16,1.16,0,0,1-.12-.55V6.38A1.32,1.32,0,0,1,69.64,6a1.14,1.14,0,0,1,.2-.38,1.12,1.12,0,0,1,.36-.29,1.16,1.16,0,0,1,.55-.12h1.54a1.32,1.32,0,0,1,.38.06,1.14,1.14,0,0,1,.38.2,1.13,1.13,0,0,1,.29.36A1.16,1.16,0,0,1,73.46,6.38Z"/></g><g id="_Grupo_2" data-name="&lt;Grupo&gt;"><polygon id="_Trazado_" data-name="&lt;Trazado&gt;" class="cls-3" points="7.15 1.55 2.78 5.92 5.28 8.41 4.05 9.64 0.35 5.95 5.95 0.35 7.15 1.55"/><polyline id="_Trazado_2" data-name="&lt;Trazado&gt;" class="cls-4" points="4.05 7.19 8.45 2.8 12.09 6.49 6.49 12.09 5.3 10.9 9.66 6.53 8.41 5.28 4.05 9.64"/></g></g></g></svg>