<?xml version="1.0" encoding="utf-8"?>
<!-- Generator: Adobe Illustrator 19.0.0, SVG Export Plug-In . SVG Version: 6.00 Build 0)  -->
<svg version="1.1" xmlns="http://www.w3.org/2000/svg" xmlns:xlink="http://www.w3.org/1999/xlink" x="0px" y="0px" width="172px"
	 height="142px" viewBox="0 0 172 142" enable-background="new 0 0 172 142" xml:space="preserve">
<g id="color_monitor_copia">
	<polyline fill="#95A5A6" points="11,19 162,19 162,100 11,100 11,19 	"/>
</g>
<g id="sombra">
	<polygon fill="#7F8C8D" points="162,19 162,100 52.352,100 95.701,19 	"/>
</g>
<g id="Capa_1">
	
		<rect x="11" y="19" fill="none" stroke="#333333" stroke-width="6" stroke-linejoin="round" stroke-miterlimit="10" width="151" height="81"/>
	
		<rect x="52" y="124" fill="#333333" stroke="#333333" stroke-width="2" stroke-linecap="round" stroke-linejoin="round" stroke-miterlimit="10" width="69" height="7"/>
	
		<rect x="78" y="100" fill="#333333" stroke="#333333" stroke-width="2" stroke-linecap="round" stroke-linejoin="round" stroke-miterlimit="10" width="19" height="24"/>
</g>
<g id="ojo">
	<path fill="#F3F3F3" d="M31.589,62.744c0,0,55.223-65.607,109.436,0C86.609,118.929,31.589,62.744,31.589,62.744z"/>
	<circle fill="#7ED3EF" cx="87.769" cy="60.054" r="21.438"/>
	<circle fill="#333333" cx="87.635" cy="60.323" r="14.158"/>
	<circle fill="#DDDDDD" cx="82.51" cy="56.009" r="4.044"/>
</g>
<g id="celular">
	<path fill="#333333" stroke="#222222" stroke-miterlimit="10" d="M166.329,132.333H130.19c-2.761,0-5-2.239-5-5V52.667
		c0-2.761,2.239-5,5-5h36.138c2.761,0,5,2.239,5,5v74.666C171.329,130.094,169.09,132.333,166.329,132.333z"/>
	<polyline fill="#95A5A6" points="129,57 168,57 168,123 129,123 129,57 	"/>
	<polygon fill="#7F8C8D" points="168,57 168,123 139.156,123 150.58,57 	"/>
	<rect x="118.464" y="110.5" display="none" fill="#FFFFFF" width="39.59" height="6.647"/>
	<path fill="none" stroke="#222222" stroke-miterlimit="10" d="M168.419,56.704h-39.955c0,16.835,0,49.564,0,61.835
		c0,2.744,0,4.465,0,4.757c13.318,0,26.637,0,39.955,0c0-1.597,0-3.194,0-4.792C168.419,97.904,168.419,77.304,168.419,56.704z"/>
	<line display="none" fill="none" stroke="#222222" stroke-miterlimit="10" x1="118" y1="110.5" x2="158" y2="110.5"/>
	<g display="none">
		<g display="inline">
			<path fill="none" stroke="#222222" stroke-width="0.75" stroke-miterlimit="10" d="M124.112,114.874
				c3.551,0,4.106-0.327,4.106-1.209c0-0.764-0.822-1.107-3.558-1.19"/>
			<g>
				<polygon fill="#222222" points="124.904,111.754 123.583,112.456 124.851,113.249 				"/>
			</g>
		</g>
	</g>
	<polygon display="none" fill="#222222" points="135.884,113.734 138.289,111.601 140.635,113.734 139.623,113.733 139.623,115.758 
		138.808,115.758 138.808,115.64 138.808,114.61 137.645,114.61 137.645,115.64 137.645,115.758 136.831,115.758 136.831,113.733 	
		"/>
	<rect x="148.251" y="112.063" display="none" fill="#222222" width="6.095" height="2.336"/>
	
		<rect x="146.833" y="112.96" display="none" fill="#FCFCFC" stroke="#222222" stroke-width="0.5" stroke-miterlimit="10" width="6.095" height="2.336"/>
	<g>
		<path fill="#F3F3F3" d="M129.875,91.315c0,0,18.589-22.084,36.837,0C148.395,110.227,129.875,91.315,129.875,91.315z"/>
		<circle fill="#7ED3EF" cx="148.786" cy="90.409" r="7.216"/>
		<circle fill="#333333" cx="148.74" cy="90.5" r="4.766"/>
		<circle fill="#DDDDDD" cx="147.016" cy="89.048" r="1.361"/>
	</g>
</g>
</svg>
